<?xml version="1.0" encoding="utf-8"?>
<!-- Uploaded to: SVG Repo, www.svgrepo.com, Generator: SVG Repo Mixer Tools -->
<svg fill="#000000" width="800px" height="800px" viewBox="0 0 32 32" version="1.1" xmlns="http://www.w3.org/2000/svg">
<title>angellist</title>
<path d="M23.065 13.796c1.088 0.13 2.017 0.714 2.608 1.554l0.008 0.012c0.492 0.965 0.78 2.105 0.78 3.313 0 0.183-0.007 0.364-0.020 0.543l0.001-0.024c0.006 0.138 0.009 0.3 0.009 0.463 0 3.102-1.189 5.927-3.137 8.042l0.008-0.008c-1.919 2.040-4.637 3.311-7.651 3.311-0.116 0-0.232-0.002-0.348-0.006l0.017 0c-0.003 0-0.007 0-0.010 0-1.334 0-2.609-0.253-3.779-0.714l0.070 0.024c-1.202-0.455-2.233-1.109-3.104-1.93l0.005 0.004c-0.901-0.8-1.646-1.752-2.199-2.82l-0.026-0.054c-0.463-0.902-0.737-1.968-0.742-3.097v-0.002c-0.005-0.082-0.009-0.177-0.009-0.273 0-0.923 0.288-1.779 0.78-2.482l-0.009 0.014c0.607-0.691 1.442-1.169 2.387-1.316l0.022-0.003c-0.148-0.321-0.301-0.723-0.431-1.136l-0.021-0.078c-0.077-0.225-0.129-0.485-0.145-0.754l-0-0.008c0.062-0.764 0.427-1.433 0.974-1.892l0.004-0.003c0.453-0.535 1.1-0.894 1.832-0.966l0.011-0.001c0.281 0.003 0.55 0.052 0.801 0.139l-0.018-0.005c0.364 0.128 0.677 0.277 0.97 0.455l-0.023-0.013q-1.586-4.491-2.307-6.932c-0.35-0.983-0.605-2.125-0.717-3.31l-0.004-0.058c-0.003-0.047-0.004-0.102-0.004-0.158 0-0.711 0.251-1.364 0.668-1.875l-0.004 0.005c0.415-0.464 1.015-0.755 1.684-0.755 0.038 0 0.076 0.001 0.113 0.003l-0.005-0q1.934 0 4.902 8.651 0.514 1.483 0.782 2.287l0.639-1.812q2.965-8.572 5.109-8.571c0.026-0.001 0.057-0.002 0.088-0.002 0.631 0 1.198 0.275 1.588 0.711l0.002 0.002c0.394 0.474 0.632 1.089 0.632 1.76 0 0.051-0.001 0.101-0.004 0.151l0-0.007c-0.112 1.223-0.356 2.35-0.72 3.42l0.031-0.104q-0.69 2.411-2.091 6.303zM8.317 22.201c0.191 0.234 0.46 0.576 0.802 1.030q1.361 1.874 2.513 1.874c0.002 0 0.005 0 0.008 0 0.264 0 0.505-0.093 0.694-0.249l-0.002 0.002c0.173-0.113 0.291-0.298 0.31-0.512l0-0.003c-0.065-0.39-0.21-0.738-0.418-1.038l0.006 0.009c-0.367-0.618-0.741-1.15-1.151-1.651l0.019 0.024c-0.428-0.566-0.877-1.068-1.364-1.529l-0.005-0.005c-0.224-0.247-0.525-0.421-0.865-0.483l-0.009-0.001c-0.557 0.034-1.039 0.33-1.326 0.766l-0.004 0.006c-0.379 0.481-0.608 1.096-0.608 1.764 0 0.021 0 0.042 0.001 0.063l-0-0.003c0.020 0.685 0.173 1.33 0.435 1.915l-0.013-0.032c0.338 0.798 0.749 1.487 1.239 2.11l-0.015-0.019c0.788 1.058 1.8 1.906 2.97 2.482l0.048 0.021c1.133 0.552 2.465 0.875 3.873 0.875 0.040 0 0.080-0 0.119-0.001l-0.006 0c0.046 0.001 0.101 0.001 0.156 0.001 2.618 0 4.966-1.157 6.561-2.988l0.009-0.010c1.685-1.893 2.714-4.401 2.714-7.15 0-0.126-0.002-0.251-0.006-0.376l0 0.018c0.002-0.070 0.003-0.151 0.003-0.234 0-0.694-0.076-1.37-0.221-2.021l0.012 0.062c-0.093-0.476-0.336-0.884-0.677-1.183l-0.002-0.002c-0.938-0.615-2.045-1.057-3.236-1.251l-0.049-0.007c-1.507-0.354-3.238-0.556-5.015-0.556-0.029 0-0.059 0-0.088 0h0.005c-0.046-0.004-0.099-0.007-0.153-0.007-0.332 0-0.642 0.095-0.904 0.258l0.007-0.004c-0.194 0.186-0.314 0.448-0.314 0.737 0 0.038 0.002 0.075 0.006 0.112l-0-0.005c0.010 0.966 0.663 1.776 1.551 2.025l0.015 0.004c1.291 0.411 2.777 0.648 4.317 0.648 0.264 0 0.526-0.007 0.786-0.021l-0.036 0.002h0.843c0.005-0 0.012-0 0.018-0 0.18 0 0.341 0.084 0.445 0.215l0.001 0.001c0.129 0.182 0.215 0.404 0.237 0.645l0 0.005c-0.412 0.314-0.891 0.569-1.407 0.741l-0.035 0.010c-0.637 0.23-1.188 0.512-1.696 0.852l0.028-0.018c-0.799 0.582-1.462 1.298-1.969 2.12l-0.018 0.032c-0.444 0.666-0.721 1.477-0.753 2.351l-0 0.008c0.021 0.593 0.137 1.153 0.332 1.674l-0.012-0.037c0.136 0.34 0.247 0.738 0.314 1.152l0.004 0.033v0.144l-0.041 0.186c-0.648-0.066-1.185-0.481-1.427-1.051l-0.004-0.011c-0.335-0.708-0.531-1.537-0.531-2.413 0-0.089 0.002-0.178 0.006-0.266l-0 0.013v-0.185c-0.091 0.083-0.197 0.153-0.313 0.203l-0.007 0.003c-0.098 0.040-0.212 0.063-0.331 0.063-0.003 0-0.006-0-0.009-0h0c-0.002 0-0.004 0-0.006 0-0.122 0-0.241-0.012-0.356-0.034l0.012 0.002c-0.15-0.029-0.275-0.061-0.397-0.099l0.025 0.007c0.066 0.231 0.11 0.499 0.123 0.775l0 0.008c0 0.002 0 0.005 0 0.007 0 0.519-0.231 0.984-0.595 1.298l-0.002 0.002c-0.363 0.338-0.851 0.546-1.388 0.546-0.011 0-0.023-0-0.034-0l0.002 0c-1.049-0.070-1.975-0.543-2.634-1.264l-0.003-0.003c-0.75-0.593-1.251-1.471-1.339-2.468l-0.001-0.013c-0-0.006-0-0.012-0-0.019 0-0.136 0.019-0.268 0.054-0.392l-0.002 0.010c0.034-0.118 0.094-0.219 0.175-0.3l-0 0zM14.497 22.694c0.258-0.008 0.486-0.13 0.636-0.317l0.001-0.002c0.174-0.178 0.284-0.421 0.289-0.689v-0.001c-0.117-0.684-0.314-1.297-0.584-1.868l0.018 0.043c-0.437-1.088-0.91-2.014-1.456-2.889l0.045 0.077c-0.34-0.596-0.744-1.108-1.213-1.552l-0.003-0.003c-0.291-0.297-0.686-0.492-1.126-0.524l-0.006-0c-0.392 0.051-0.728 0.252-0.956 0.543l-0.002 0.003c-0.291 0.253-0.485 0.611-0.524 1.013l-0.001 0.006c0.068 0.556 0.251 1.059 0.524 1.499l-0.009-0.016c0.432 0.799 0.89 1.486 1.402 2.127l-0.022-0.028c0.512 0.711 1.074 1.332 1.698 1.886l0.012 0.010c0.332 0.348 0.771 0.591 1.263 0.678l0.014 0.002zM16.515 12.746l-2.224-6.427c-0.395-1.239-0.849-2.299-1.39-3.305l0.050 0.102q-0.474-0.754-1.030-0.752c-0.007-0-0.015-0-0.022-0-0.274 0-0.519 0.128-0.676 0.328l-0.001 0.002c-0.169 0.224-0.271 0.507-0.271 0.814 0 0.025 0.001 0.050 0.002 0.074l-0-0.003c0.111 1.214 0.367 2.333 0.751 3.39l-0.030-0.093q0.722 2.349 2.163 6.158c0.076-0.144 0.198-0.255 0.345-0.317l0.005-0.002c0.164-0.059 0.353-0.094 0.551-0.094 0.024 0 0.048 0.001 0.071 0.002l-0.003-0c0.082 0 0.247 0.006 0.495 0.020q0.369 0.021 1.215 0.104zM18.843 18.987c-0.615-0.027-1.193-0.093-1.757-0.197l0.078 0.012c-0.579-0.105-1.087-0.248-1.575-0.433l0.061 0.020q0.328 0.66 0.587 1.318c0.142 0.344 0.286 0.777 0.403 1.22l0.018 0.079c0.328-0.41 0.669-0.777 1.035-1.118l0.006-0.006c0.342-0.318 0.715-0.613 1.111-0.876l0.032-0.020zM21.582 13.446q1.38-3.749 2.153-6.189c0.327-0.857 0.596-1.866 0.761-2.91l0.011-0.087c0.002-0.027 0.003-0.058 0.003-0.089 0-0.313-0.097-0.603-0.263-0.842l0.003 0.005c-0.158-0.202-0.401-0.331-0.675-0.331-0.013 0-0.025 0-0.038 0.001l0.002-0c-0.385 0-0.775 0.319-1.175 0.957-0.502 0.879-0.949 1.899-1.287 2.967l-0.031 0.113-2.059 5.952z"></path>
</svg>