<svg version="1.1" id="Layer_1" xmlns:x="ns_extend;" xmlns:i="ns_ai;" xmlns:graph="ns_graphs;" xmlns="http://www.w3.org/2000/svg" xmlns:xlink="http://www.w3.org/1999/xlink" x="0px" y="0px" viewBox="0 0 65.1 64.8" style="enable-background:new 0 0 65.1 64.8;" xml:space="preserve">
 <style type="text/css">
  .st0{fill:#823589;}
	.st1{fill:url(#SVGID_1_);}
	.st2{fill:url(#SVGID_2_);}
	.st3{fill:#4C205B;}
	.st4{fill:#FFFFFF;}
 </style>
 <metadata>
  <sfw xmlns="ns_sfw;">
   <slices>
   </slices>
   <sliceSourceBounds bottomLeftOrigin="true" height="64.8" width="65.1" x="-132.9" y="67.2">
   </sliceSourceBounds>
  </sfw>
 </metadata>
 <g>
  <path class="st0" d="M40.3,14.9c-0.1-0.1-0.2-0.2-0.3-0.3C40.1,14.6,40.2,14.8,40.3,14.9z">
  </path>
  <path class="st0" d="M18.9,16.3l8.1-2.3L18.9,16.3c-0.3,0.1-0.5,0.2-0.7,0.4c-0.2,0.2-0.4,0.4-0.5,0.6c-0.1,0.2-0.2,0.5-0.2,0.8
		c0,0.3,0,0.5,0.1,0.8c-0.1-0.3-0.1-0.5-0.1-0.8c0-0.3,0.1-0.5,0.2-0.8c0.1-0.2,0.3-0.4,0.5-0.6C18.4,16.5,18.6,16.4,18.9,16.3z">
  </path>
  <path class="st0" d="M40,14.5c-1-1-2.3-1.7-3.7-2c-1.4-0.3-2.9-0.3-4.3,0.1c1.4-0.4,2.9-0.4,4.3-0.1C37.6,12.8,38.9,13.5,40,14.5z">
  </path>
  <path class="st0" d="M61.4,31.3H3.8c-1,0-2-0.4-2.7-1.1C0.4,29.5,0,28.5,0,27.5v9.7c0-1,0.4-1.9,1.1-2.7c0.7-0.7,1.7-1.1,2.7-1.1
		h57.6c1,0,2,0.4,2.7,1.1c0.7,0.7,1.1,1.7,1.1,2.7v-9.7c0,0.5-0.1,1-0.3,1.4c-0.2,0.5-0.5,0.9-0.8,1.2c-0.4,0.4-0.8,0.6-1.2,0.8
		C62.4,31.2,61.9,31.3,61.4,31.3z">
  </path>
  <path class="st0" d="M58.8,0H6.3C5.5,0,4.7,0.2,3.9,0.5c-0.8,0.3-1.5,0.8-2,1.4c-0.6,0.6-1.1,1.3-1.4,2C0.2,4.6,0,5.5,0,6.3v21.2
		c0,1,0.4,1.9,1.1,2.7c0.7,0.7,1.7,1.1,2.7,1.1h57.6c1,0,2-0.4,2.7-1.1c0.7-0.7,1.1-1.7,1.1-2.7V6.3c0-1.7-0.7-3.3-1.8-4.4
		C62.1,0.7,60.5,0,58.8,0z">
  </path>
  <radialGradient id="SVGID_1_" cx="18.981" cy="314.8441" r="1.5976" gradientTransform="matrix(1.529951e-15 24.986 32.1432 -1.968203e-15 -10086.4082 -495.9453)" gradientUnits="userSpaceOnUse">
   <stop offset="0.82" style="stop-color:#A154A1">
   </stop>
   <stop offset="0.89" style="stop-color:#823589">
   </stop>
  </radialGradient>
  <path class="st1" d="M58.8,0H6.3C5.5,0,4.7,0.2,3.9,0.5c-0.8,0.3-1.5,0.8-2,1.4c-0.6,0.6-1.1,1.3-1.4,2C0.2,4.6,0,5.5,0,6.3v21.2
		c0,1,0.4,1.9,1.1,2.7c0.7,0.7,1.7,1.1,2.7,1.1h57.6c1,0,2-0.4,2.7-1.1c0.7-0.7,1.1-1.7,1.1-2.7V6.3c0-1.7-0.7-3.3-1.8-4.4
		C62.1,0.7,60.5,0,58.8,0z">
  </path>
  <path class="st0" d="M61.4,33.5H3.8c-1,0-2,0.4-2.7,1.1S0,36.3,0,37.3v21.2c0,0.8,0.2,1.6,0.5,2.4c0.3,0.8,0.8,1.5,1.4,2
		c0.6,0.6,1.3,1,2,1.4c0.8,0.3,1.6,0.5,2.4,0.5h52.5c0.8,0,1.7-0.2,2.4-0.5c0.8-0.3,1.5-0.8,2-1.4c0.6-0.6,1.1-1.3,1.4-2
		c0.3-0.8,0.5-1.6,0.5-2.4V37.2c0-1-0.4-1.9-1.1-2.6C63.3,33.9,62.4,33.5,61.4,33.5z">
  </path>
  <radialGradient id="SVGID_2_" cx="11.2315" cy="315.09" r="1.5976" gradientTransform="matrix(1.529951e-15 -24.986 -32.1432 -1.968203e-15 10158.2822 367.099)" gradientUnits="userSpaceOnUse">
   <stop offset="0.82" style="stop-color:#5F286E">
   </stop>
   <stop offset="0.89" style="stop-color:#823589">
   </stop>
  </radialGradient>
  <path class="st2" d="M61.4,33.5H3.8c-1,0-2,0.4-2.7,1.1S0,36.3,0,37.3v21.2c0,0.8,0.2,1.6,0.5,2.4c0.3,0.8,0.8,1.5,1.4,2
		c0.6,0.6,1.3,1,2,1.4c0.8,0.3,1.6,0.5,2.4,0.5h52.5c0.8,0,1.7-0.2,2.4-0.5c0.8-0.3,1.5-0.8,2-1.4c0.6-0.6,1.1-1.3,1.4-2
		c0.3-0.8,0.5-1.6,0.5-2.4V37.2c0-1-0.4-1.9-1.1-2.6C63.3,33.9,62.4,33.5,61.4,33.5z">
  </path>
  <path class="st0" d="M59,2.1H6.2c-0.5,0-1.1,0.1-1.6,0.3c-0.5,0.2-1,0.5-1.3,0.9C2.9,3.6,2.6,4.1,2.4,4.6c-0.2,0.5-0.3,1-0.3,1.6
		v52.5c0,1.1,0.4,2.1,1.2,2.9c0.8,0.8,1.8,1.2,2.9,1.2H59c1.1,0,2.1-0.4,2.9-1.2c0.8-0.8,1.2-1.8,1.2-2.9V6.2c0-1.1-0.4-2.1-1.2-2.9
		C61.1,2.5,60,2.1,59,2.1z M52.6,40.9c-0.5,4.7-4.7,9.5-9.3,10.8l-13.5,3.9c-1,0.3-2.1,0.2-3.1-0.3c-0.9-0.5-1.6-1.4-1.9-2.4
		L15,19.1c-0.3-1-0.2-2.1,0.3-3.1c0.5-0.9,1.4-1.6,2.4-1.9l13.5-3.9c2.1-0.5,4.2-0.4,6.2,0.2c2,0.6,3.8,1.8,5.2,3.4
		c1.4,1.7,2.3,3.8,2.6,6.1c0.2,2.2-0.2,4.5-1.2,6.5c2.9,1.1,5.2,3.2,6.8,5.8C52.4,34.8,53,37.9,52.6,40.9z">
  </path>
  <path class="st0" d="M41.7,28.2c-0.6-0.1-1.3-0.2-1.9-0.3C40.4,27.9,41,28,41.7,28.2z">
  </path>
  <path class="st3" d="M45.3,29.8c-0.9-0.6-2-1.1-3-1.4l-0.6-0.2c-0.6-0.1-1.3-0.2-1.9-0.3c0.2-0.2,0.4-0.4,0.6-0.6l0.1-0.1
		c0.2-0.2,0.3-0.4,0.5-0.5c0.1-0.2,0.1-0.1,0.2-0.2c0.1-0.1,0.2-0.3,0.3-0.5l0.2-0.3c0.1-0.1,0.2-0.3,0.3-0.4l0.1-0.3
		c0.1-0.1,0.1-0.3,0.2-0.4c0-0.1,0.1-0.2,0.1-0.3c0-0.2,0.1-0.3,0.2-0.5c0-0.2,0.1-0.3,0.1-0.4c0-0.1,0.1-0.3,0.1-0.5
		c0-0.2,0-0.3,0-0.4c0-0.1,0-0.3,0.1-0.4c0-0.1,0-0.3,0-0.4c0-0.1,0-0.3,0-0.5c0-0.2,0-0.3,0-0.4s0-0.3,0-0.5s0-0.3-0.1-0.4
		c0-0.1,0-0.3-0.1-0.5c0-0.2-0.1-0.3-0.1-0.4c0-0.1-0.1-0.3-0.1-0.5l-0.2-0.4c-0.1-0.2-0.1-0.3-0.2-0.5c-0.1-0.1-0.2-0.3-0.2-0.4
		c-0.1-0.2-0.1-0.3-0.2-0.4c-0.1-0.1-0.2-0.3-0.3-0.4c-0.1-0.1-0.2-0.3-0.3-0.4c-0.1-0.1-0.2-0.3-0.3-0.4l-0.4-0.4
		c-0.1-0.1-0.2-0.2-0.3-0.3L40,14.5c-1-1-2.3-1.7-3.7-2c-1.4-0.3-2.9-0.3-4.3,0.1L27,14l-8.1,2.3c-0.3,0.1-0.5,0.2-0.7,0.4
		c-0.2,0.2-0.4,0.4-0.5,0.6c-0.1,0.2-0.2,0.5-0.2,0.8c0,0.3,0,0.5,0.1,0.8l10.9-3.1c1.5-0.4,3-0.4,4.5,0c1.5,0.4,2.8,1.3,3.8,2.4
		c0.8,0.9,1.4,1.9,1.8,2.9c0.4,1.1,0.6,2.3,0.5,3.4c-0.1,1.2-0.4,2.3-0.9,3.3c-0.5,1-1.2,2-2.1,2.7c2.5,0,4.8,0.9,6.7,2.6
		c1.8,1.6,3,3.9,3.3,6.3c0.3,2.4-0.2,4.9-1.6,6.9s-3.4,3.5-5.8,4.2h-0.1l-7.2,2.1l10.8-3.1c2-0.6,3.8-1.7,5.2-3.3
		c1.4-1.6,2.3-3.5,2.6-5.6c0.3-2.1,0.1-4.2-0.8-6.1C48.5,32.5,47.1,30.8,45.3,29.8L45.3,29.8z">
  </path>
  <path class="st4" d="M44,26.4c1-2,1.5-4.2,1.2-6.5c-0.2-2.2-1.1-4.3-2.6-6.1c-1.4-1.6-3.2-2.7-5.2-3.4c-2-0.6-4.2-0.7-6.2-0.2
		l-13.5,3.9c-1,0.3-1.9,1-2.4,1.9c-0.5,0.9-0.6,2-0.3,3.1l9.8,33.8c0.3,1,1,1.9,1.9,2.4c0.9,0.5,2,0.6,3.1,0.3l13.5-3.9
		c4.5-1.3,8.7-6.2,9.3-10.8c0.4-3-0.2-6.1-1.8-8.7C49.3,29.5,46.9,27.5,44,26.4z M42.2,49.5l-12.7,3.6c-0.3,0.1-0.5,0.1-0.8,0.1
		c-0.3,0-0.5-0.1-0.7-0.2c-0.2-0.1-0.4-0.3-0.6-0.5c-0.2-0.2-0.3-0.4-0.4-0.7l-5.9-20.3l-3.7-12.7c-0.1-0.3-0.1-0.5-0.1-0.8
		c0-0.3,0.1-0.5,0.2-0.8c0.1-0.2,0.3-0.4,0.5-0.6c0.2-0.2,0.5-0.3,0.7-0.3L27,14l5-1.4c1.4-0.4,2.9-0.4,4.3-0.1c1.4,0.3,2.7,1,3.7,2
		l0.1,0.1c0.1,0.1,0.2,0.2,0.3,0.3c0.1,0.1,0.2,0.3,0.3,0.4c0.1,0.1,0.2,0.3,0.3,0.4c0.1,0.1,0.2,0.3,0.3,0.4
		c0.1,0.1,0.2,0.3,0.3,0.4c0.1,0.1,0.2,0.3,0.2,0.4c0.1,0.1,0.2,0.3,0.2,0.4c0.1,0.1,0.1,0.3,0.2,0.5l0.2,0.4c0,0.2,0.1,0.3,0.1,0.5
		c0,0.2,0.1,0.3,0.1,0.4c0,0.1,0.1,0.3,0.1,0.5c0,0.2,0.1,0.3,0.1,0.4c0,0.1,0,0.3,0,0.5c0,0.1,0,0.3,0,0.4c0,0.1,0,0.3,0,0.5
		s0,0.3,0,0.4c0,0.1,0,0.3-0.1,0.4c-0.1,0.1,0,0.3,0,0.4c0,0.1-0.1,0.3-0.1,0.5c0,0.2,0,0.3-0.1,0.4c0,0.1-0.1,0.3-0.2,0.5
		c0,0.1-0.1,0.2-0.1,0.3c-0.1,0.1-0.1,0.3-0.2,0.4l-0.1,0.3c-0.1,0.1-0.2,0.3-0.3,0.4L41.4,26c-0.1,0.2-0.2,0.3-0.3,0.5
		c-0.1,0.2-0.1,0.1-0.2,0.2c-0.1,0.1-0.3,0.4-0.5,0.5l-0.1,0.1c-0.2,0.2-0.4,0.4-0.6,0.6c0.6,0,1.3,0.1,1.9,0.3l0.6,0.2
		c1.1,0.3,2.1,0.8,3,1.4c1.8,1.2,3.1,2.8,4,4.7c0.8,1.9,1.1,4.1,0.8,6.1c-0.3,2.1-1.2,4-2.6,5.6C46,47.9,44.2,49,42.2,49.5
		L42.2,49.5z">
  </path>
  <path class="st4" d="M27.1,51.8l-5.9-20.2L27.1,51.8z">
  </path>
  <path class="st4" d="M40.4,14.9l0.4,0.4C40.6,15.2,40.5,15,40.4,14.9z">
  </path>
  <path class="st4" d="M32,12.6l-5,1.4L32,12.6z">
  </path>
  <path class="st4" d="M29.6,53.2l12.7-3.6l-10.9,3.1L29.6,53.2z">
  </path>
  <path class="st4" d="M17.5,18.8L17.5,18.8L17.5,18.8z">
  </path>
  <path class="st4" d="M39.8,27.9c0.2-0.2,0.4-0.4,0.6-0.6C40.2,27.5,40,27.7,39.8,27.9z">
  </path>
  <path class="st0" d="M27,51.8c0.1,0.3,0.2,0.5,0.4,0.7c0.2,0.2,0.4,0.4,0.6,0.5c0.2,0.1,0.5,0.2,0.7,0.2c0.3,0,0.5,0,0.8-0.1
		c-0.3,0.1-0.5,0.1-0.8,0.1c-0.3,0-0.5-0.1-0.8-0.2c-0.2-0.1-0.4-0.3-0.6-0.5C27.2,52.3,27.1,52,27,51.8z">
  </path>
  <path class="st0" d="M38.5,50.6h0.1c2.4-0.7,4.4-2.2,5.8-4.2c1.4-2,1.9-4.5,1.6-6.9c-0.3-2.4-1.5-4.7-3.3-6.3
		c-1.8-1.6-4.2-2.5-6.7-2.6c0.9-0.8,1.6-1.7,2.1-2.7c0.5-1,0.8-2.2,0.9-3.3c0.1-1.2-0.1-2.3-0.5-3.4s-1-2.1-1.8-2.9
		c-1-1.1-2.3-2-3.8-2.4c-1.5-0.4-3-0.4-4.5,0l-10.9,3.1L27,51.8c0.1,0.3,0.2,0.5,0.4,0.7c0.2,0.2,0.4,0.4,0.6,0.5
		c0.2,0.1,0.5,0.2,0.8,0.2c0.3,0,0.5,0,0.8-0.1l1.8-0.5L38.5,50.6z">
  </path>
  <path class="st0" d="M17.5,18.9l3.7,12.7l5.9,20.2L17.5,18.9z">
  </path>
 </g>
</svg>