<svg id="Layer_1" data-name="Layer 1" xmlns="http://www.w3.org/2000/svg" width="467.72" height="175.99" viewBox="0 0 467.72 175.99">
  <defs>
    <style>
      .cls-1 {
        fill: #ed367d;
      }

      .cls-2 {
        fill: #050708;
      }

      .cls-3 {
        fill: #fddf1a;
      }

      .cls-4 {
        fill: #41bcec;
      }
    </style>
  </defs>
  <title>cult_fit_logo-freelogovectors.net</title>
  <g>
    <path class="cls-1" d="M89.61,162.22a45.85,45.85,0,0,1,7.32-.14,3.6,3.6,0,0,1,3.34,3.55c.19,3.42,0,6.87.09,10.3,0,1.74-.12,3.87-1.7,4.94-2.06.94-4.4.57-6.6.62-1.94.1-4.4-.82-4.56-3.06-.3-3.9-.06-7.82-.13-11.73C87.31,165,87.7,162.74,89.61,162.22Z" transform="translate(-16.14 -162)"/>
    <path class="cls-2" d="M90.16,189.82a23.43,23.43,0,0,1,15.38,2.93,22.81,22.81,0,0,1-5,41.27,23,23,0,0,1-19.63-3.08A22.51,22.51,0,0,1,71.59,217a23.46,23.46,0,0,1,3.46-17.67A23,23,0,0,1,90.16,189.82Zm1.19,13.52a10,10,0,0,0-5,3.51,9.13,9.13,0,0,0-.56,9.88,9.51,9.51,0,0,0,9,4.76c5.52-.45,9.64-6.54,7.89-11.83A9.35,9.35,0,0,0,91.35,203.34Z" transform="translate(-16.14 -162)"/>
    <path class="cls-2" d="M32.83,203c2.05-.68,3.91.78,5.5,1.87,5.13,3.75,10.62,7,15.79,10.64,2.17,1.6,4.66,2.78,6.6,4.68,1.1,1.83.41,4.09-.88,5.63s-2.17,4.22-4.54,4.53c-2.38.52-4.09-1.52-6-2.56-6.51-4.47-13.11-8.8-19.66-13.22-1.06-.73-2.3-1.61-2.37-3-.29-2.06,1.31-3.64,2.27-5.29C30.52,205.06,31.15,203.28,32.83,203Z" transform="translate(-16.14 -162)"/>
    <path class="cls-2" d="M151.81,203.31a3.83,3.83,0,0,1,5.28,1.05,39.15,39.15,0,0,1,3.34,5.28,4,4,0,0,1-1.87,4.62c-7.55,5.06-15.13,10.07-22.64,15.2-1.5,1.11-4.06,1.32-5.28-.3a27.87,27.87,0,0,1-3.49-5,3.73,3.73,0,0,1,1.15-5Q140,211.17,151.81,203.31Z" transform="translate(-16.14 -162)"/>
    <path class="cls-2" d="M319.36,207.73c-.13-1.09.63-2.47,1.86-2.34,2.83-.06,5.66,0,8.5,0a2.09,2.09,0,0,1,2,2.43c0,25,.07,49.93-.06,74.89.34,2-2,2.69-3.54,2.49-2.86-.22-5.93.57-8.61-.76a59.86,59.86,0,0,1-.19-7Q319.36,242.6,319.36,207.73Z" transform="translate(-16.14 -162)"/>
    <path class="cls-2" d="M404.17,211.46c2.57-4,7.34-6,12-6.27a26.65,26.65,0,0,1,8.5.47c1.12,1.1.62,2.86.76,4.28-.16,2,.37,4.23-.69,6-2.53.41-5.23-.39-7.65.68a4.7,4.7,0,0,0-3,4.09c-.17,2.48-.16,5-.14,7.47,3.58.1,7.21-.37,10.75.32a39.42,39.42,0,0,1,.1,10.18c-3.59.2-7.18.1-10.77.09-.22,14.68,0,29.38-.13,44.07-.07.67.18,1.6-.67,1.87-1.73.83-3.76.27-5.61.43-2-.18-4.29.53-6-.78-.18-15.19.08-30.39-.14-45.58-2.93-.06-5.88.23-8.78-.23a56,56,0,0,1,0-10c2.91-.59,5.88-.32,8.83-.33C401.49,222.58,401,216.44,404.17,211.46Z" transform="translate(-16.14 -162)"/>
    <path class="cls-2" d="M344,205.87c3.25-1,6.71-.36,10-.48,1.37-.28,2.3,1.15,2.26,2.37.07,6.82,0,13.64,0,20.46,4.33.14,8.78-.55,13,.42.2,2.6.21,5.21.17,7.8a4.43,4.43,0,0,1-.85,2.42c-4.12-.08-8.24,0-12.35,0,0,8.93,0,17.85,0,26.78-.07,2.62.53,5.7,2.91,7.19s5.07.48,7.53,1.09a4.22,4.22,0,0,1,1.59,2.61c.56,2.66,1.21,5.32,1.51,8a5.92,5.92,0,0,1-2.87.71c-5.89.13-12.3.05-17.3-3.5-4.4-3.15-6.07-8.8-6.08-14q0-29.44,0-58.9A12.93,12.93,0,0,1,344,205.87Z" transform="translate(-16.14 -162)"/>
    <path class="cls-2" d="M434.85,205.91c1-.79,2.31-.48,3.48-.57,2.46.1,5.5-.66,7.21,1.65.66,3.1.29,6.31.31,9.46.09,1.45-1.08,2.52-2.22,3.19a46,46,0,0,1-6.94.12,3.38,3.38,0,0,1-3.32-3.31c-.06-2.54-.06-5.07,0-7.61A3.6,3.6,0,0,1,434.85,205.91Z" transform="translate(-16.14 -162)"/>
    <path class="cls-2" d="M457.66,207.77a2.25,2.25,0,0,1,2.25-2.41q4.08-.06,8.17,0c1.07-.15,1.83.76,2.3,1.61.17,7.11,0,14.23.11,21.33,4.3,0,8.68-.48,12.94.27a49.12,49.12,0,0,1,.17,8.4c0,.91-.62,1.93-1.64,1.83-3.82.13-7.64,0-11.46.06-.1,9.27,0,18.54,0,27.82,0,2.63,1.15,5.89,4,6.61a27.76,27.76,0,0,0,6.51.42c1.59,1.71,1.7,4.1,2.23,6.26a22.52,22.52,0,0,1,.65,4.48c-1.1.94-2.6.77-3.94.84-5.18.07-10.67-.19-15.22-2.94-4.25-2.54-6.5-7.46-6.83-12.27-.28-4-.2-8-.21-12.05Q457.66,232.9,457.66,207.77Z" transform="translate(-16.14 -162)"/>
    <path class="cls-2" d="M224.1,227.53c8.67-1.27,18.19,1.07,24.35,7.55,1.19,1.32,2.87,2.86,2.18,4.83a67.78,67.78,0,0,1-5.16,4.56c-.79.69-2.11,1.38-3,.55-2.35-1.92-4.69-4-7.62-5-5.46-1.77-12-1.18-16.44,2.67-6.78,5.51-7.79,16-3.72,23.46a15.59,15.59,0,0,0,10.88,7.87,18.52,18.52,0,0,0,16.2-5.22c.77-.74,1.45-1.56,2.25-2.27,1.36-.77,2.65.43,3.62,1.28a42.26,42.26,0,0,1,4,4c.71,1.3-.31,2.6-1.09,3.58-5.26,6.38-13.35,10.77-21.75,10.45a27.69,27.69,0,0,1-19.19-7.08,29.62,29.62,0,0,1-9-19.19c-.65-7.39.87-15.2,5.35-21.24C210,232.37,217,228.58,224.1,227.53Z" transform="translate(-16.14 -162)"/>
    <path class="cls-2" d="M259.53,228.4a78.78,78.78,0,0,1,9.22-.19c.92.12,2.44.09,2.34,1.41.39,7.48,0,15,.26,22.45.17,4.68,0,9.36.19,14a9,9,0,0,0,5.88,7.93c5.16,1.57,11.41-.1,14.6-4.61,2.66-3.37,3.08-7.79,3-11.92-.08-9.19.15-18.38.16-27.57-.13-1.47,1.5-1.81,2.64-1.75,3.15.07,6.35-.29,9.45.38.33,9.45.06,18.92.15,28.37,0,9,.06,17.94-.08,26.91.12.77-.74,1.28-1.39,1.31-1.81.07-3.62,0-5.43,0a22.32,22.32,0,0,1-2.25-5c-.25-.49-.26-1.24-.91-1.35-7.91,8.55-22.48,10.09-31.72,2.83-4.57-3.56-6.35-9.51-6.62-15.08-.33-10.24-.13-20.48-.19-30.72C258.92,233.37,258.48,230.76,259.53,228.4Z" transform="translate(-16.14 -162)"/>
    <path class="cls-2" d="M433.94,228.78c1.49-.85,3.29-.53,4.93-.6,1.92.08,3.89-.23,5.76.28,1.13.6,1.31,1.89,1.26,3q0,24.34,0,48.68a31.19,31.19,0,0,1-.28,4c-.78.41-1.5,1.07-2.42,1q-3.54,0-7.06,0a2.48,2.48,0,0,1-2.63-1.85,23.23,23.23,0,0,1-.18-4.25q0-23.77,0-47.56A5.11,5.11,0,0,1,433.94,228.78Z" transform="translate(-16.14 -162)"/>
    <path class="cls-2" d="M18.85,243.19c1.43-.76,3.09-.5,4.64-.55q71.58,0,143.16,0a5.15,5.15,0,0,1,4.91,3.53,75,75,0,0,1,.21,8.08c.13,2.82-2.13,5.68-5.11,5.52-47.72.06-95.45,0-143.16,0-2.1.06-4.53,0-6-1.66-2.13-2.63-1-6.23-1.24-9.32A5.37,5.37,0,0,1,18.85,243.19Z" transform="translate(-16.14 -162)"/>
    <path class="cls-2" d="M85.33,269.69c1.62-.74,3.42-.46,5.15-.51,3.42.05,6.85-.09,10.27.06,2,.16,3.34,1.78,4.52,3.22,11.6,13.57,23.3,27.07,34.9,40.64,1.5,1.68,3.44,3.49,3.17,6,.25,2.65-2.39,4-4,5.66-1.89,1.44-3.58,3.73-6.2,3.66-1.94.24-3.51-1.13-4.65-2.52q-15.71-18.32-31.44-36.6c-1.3-1.82-4.17-2.52-5.8-.71q-16.36,19-32.77,37.93a5.08,5.08,0,0,1-6.94.72c-1.81-1.42-3.49-3-5.28-4.47a5.17,5.17,0,0,1-.67-7.54Q64.31,293.43,83,271.67A8.05,8.05,0,0,1,85.33,269.69Z" transform="translate(-16.14 -162)"/>
    <path class="cls-2" d="M381.79,270.66a51.46,51.46,0,0,1,6.21,0,3.43,3.43,0,0,1,3.21,3,61.78,61.78,0,0,1,0,8.05,3.59,3.59,0,0,1-3.67,3.42c-2,0-4,.09-6-.06a3.68,3.68,0,0,1-3-3.83c0-2.36,0-4.71,0-7.06A3.66,3.66,0,0,1,381.79,270.66Z" transform="translate(-16.14 -162)"/>
    <path class="cls-2" d="M90.07,309.48a47.29,47.29,0,0,1,6.84-.11,3.41,3.41,0,0,1,3.25,3.67c0,7.21.09,14.43,0,21.64a3.26,3.26,0,0,1-3.23,3.2,37.85,37.85,0,0,1-6.9-.08c-1.89-.37-2.67-2.42-2.64-4.15,0-6.67-.05-13.34,0-20A3.92,3.92,0,0,1,90.07,309.48Z" transform="translate(-16.14 -162)"/>
    <path class="cls-3" d="M132.76,269.18c2.42,0,4.24,1.92,6.23,3,5.1,3.13,9.82,6.8,14.93,9.91,2.17,1.59,4.58,3,6.27,5.16,1.08,2.38-.63,4.71-2,6.57-1,1.26-1.84,2.85-3.51,3.22-2,.09-3.64-1.36-5.27-2.35-5.12-3.15-9.79-7-15.06-9.92a64.1,64.1,0,0,1-6.49-4.25c-1.26-.92-1.15-2.66-1-4a16.94,16.94,0,0,1,2.23-4.2C130,271,131,269.44,132.76,269.18Z" transform="translate(-16.14 -162)"/>
    <path class="cls-4" d="M53.38,269.46c1.54-.79,3.29.19,4.21,1.47,1.56,2.08,4,4.12,3.52,7,.07,2.06-2,3-3.43,4-7.27,4.5-14.21,9.5-21.34,14.21a4.65,4.65,0,0,1-4.27.27,39.67,39.67,0,0,1-3.89-4.69c-1.25-1.56-1.51-4.3.23-5.6,5.41-4.46,11.7-7.67,17.35-11.79C48.32,272.76,50.71,270.87,53.38,269.46Z" transform="translate(-16.14 -162)"/>
  </g>
</svg>
