<?xml version="1.0" encoding="utf-8"?>
<!-- Custom Link Icon -->
<svg version="1.1" id="custom-link" xmlns="http://www.w3.org/2000/svg" xmlns:xlink="http://www.w3.org/1999/xlink" 
	 viewBox="0 0 56 56" xml:space="preserve">
<g>
	<!-- Link Chain -->
	<path style="fill:none;stroke:#1D1D1B;stroke-width:2.5;stroke-linecap:round;stroke-linejoin:round;" 
	      d="M20,28 L36,28"/>
	
	<!-- Left Link -->
	<path style="fill:none;stroke:#1D1D1B;stroke-width:2.5;stroke-linecap:round;stroke-linejoin:round;" 
	      d="M14,20 C10,20 8,22 8,26 C8,30 10,32 14,32 L20,32 L20,24 L14,24 C12,24 12,28 14,28"/>
	
	<!-- Right Link -->
	<path style="fill:none;stroke:#1D1D1B;stroke-width:2.5;stroke-linecap:round;stroke-linejoin:round;" 
	      d="M42,20 C46,20 48,22 48,26 C48,30 46,32 42,32 L36,32 L36,24 L42,24 C44,24 44,28 42,28"/>
	
	<!-- Star/Custom indicator -->
	<polygon style="fill:#1D1D1B;" points="28,10 29.5,14 33.5,14 30.5,16.5 31.5,20.5 28,18 24.5,20.5 25.5,16.5 22.5,14 26.5,14"/>
</g>
</svg>
