<?xml version="1.0" encoding="UTF-8"?><svg id="uuid-b68bbd43-8e6e-4a02-8ca0-67fb345a3ed5" xmlns="http://www.w3.org/2000/svg" xmlns:xlink="http://www.w3.org/1999/xlink" viewBox="0 0 300 47">
<title>Dailymotion logo - Brandlogos.net</title><defs><clipPath id="uuid-b5d05bd6-5fe1-4c86-b3bf-138e058f83e3"><rect width="300" height="47" style="fill:none;"/></clipPath></defs><g style="clip-path:url(#uuid-b5d05bd6-5fe1-4c86-b3bf-138e058f83e3);"><path d="M61.79,45.3h-5.51L66.72.75h5.45l-10.38,44.54h0ZM87.41,45.3h-18.39L79.53.75h5.51l-9.35,39.56h12.87s-1.15,4.99-1.15,4.99ZM101.84,28.07l-3.97,17.22h-5.58l4.04-17.35-3.07-27.19h5.58l1.6,21.7L112.41.75h6.22l-16.79,27.32ZM225.19,5.74h-8.07l-8.72,39.56h-5.58l8.72-39.56h-8.84l1.22-4.99h22.49s-1.22,4.99-1.22,4.99ZM225.01,45.3h-4.94L229.95.75h5.45l-9.81,44.54s-.58,0-.58,0ZM261.01,13.28l-4.87,21.86c-.66,3.09-1.59,5.31-2.78,6.88-1.82,2.46-4.81,3.67-8.85,3.67-6.67,0-10.49-2.91-10.56-7.89-.02-1.45.15-2.78.69-5.18l4.87-21.86C241.12,3.37,244.91.02,251.52.02s10.04,3.03,10.11,8.09c.02,1.45-.15,2.97-.63,5.18h0s0,0,0,0ZM251.27,4.69c-1.92,0-3.39.63-4.39,1.89-.82,1.01-1.24,2.34-1.85,4.92l-4.87,21.98c-.3,1.32-.47,2.59-.46,3.54.04,2.66,1.79,4.1,4.8,4.1,3.2,0,4.91-1.83,5.93-6.38l4.93-21.73c.48-2.15.66-3.16.64-4.17-.04-2.72-1.73-4.17-4.74-4.17h.01s0,.01,0,.01ZM122.89.8h9.23l2.54,25.54c.46,4.92.71,8.9,1.04,14.28h.13c2.14-5.31,3.97-9.34,6.37-14.28L154.81.8h9.36l-5,44.48h-6.11l3.19-26.56c.59-4.8,1.24-8.9,2.02-13.82l-.13-.07c-2.21,4.8-4.16,9.02-6.56,13.89l-12.87,26.56h-7.87l-2.47-26.56c-.46-4.8-.78-9.09-1.11-13.82h-.13c-1.1,4.73-2.14,8.96-3.51,13.82l-7.15,26.56h-6.18L122.89.8h0ZM200.68,23.01c-3.3,17.08-10.49,23.07-21.82,23.07-8.93,0-13.86-3.82-13.86-13.64,0-2.94.32-5.81,1.04-9.37,3.43-17.08,10.49-23.07,21.88-23.07,8.87,0,13.86,3.82,13.86,13.64,0,2.94-.39,5.81-1.1,9.37h0ZM187.21,4.72c-7.38,0-12.36,4.78-15.08,18.48-.71,3.18-1.1,6.31-1.1,8.86,0,6.62,2.85,9.3,8.48,9.3,7.45,0,12.36-4.78,15.15-18.48.65-3.18,1.1-6.31,1.1-8.86,0-6.57-2.85-9.3-8.55-9.3h0ZM19.56.74c-1.06,0-10.29.15-10.29.15L0,45.37h4.37c2.49-.03,3.42.02,5.85.02,11.38,0,18.58-5.1,21.89-22.13h0c.71-3.55,1.11-6.41,1.11-9.34,0-9.79-4.75-13.18-13.66-13.18ZM26.56,23.24c-2.8,13.65-7.28,16.77-14.76,16.81-2.61.01-3.2-.01-5.18-.04L13.72,5.7h0c2.22-.04,2.75-.06,4.79-.04,5.72.05,9.16,2.21,9.16,8.76,0,2.54-.45,5.66-1.1,8.83h0s0,0,0,0ZM294.42.74l-8.82,39.9-6.55-39.9h-9.21l-10.02,44.57h5.79l8.81-40.58,6.49,40.58h9.12L300,.74h-5.58ZM47.76.76l-18.32,44.54h5.89l3.34-8.33,2.12-5.17.75-2h6.18l-.2,2-.45,5.18-.64,8.33h5.58L55.45.76h-7.69,0,0ZM43.48,24.57l7.1-19.77-2.34,19.77h-4.76Z" style="fill:#0d0d0d;"/></g></svg>