<svg xmlns="http://www.w3.org/2000/svg" width="1500" height="1500"><linearGradient id="a" x2="1" gradientTransform="matrix(1500 1500 -1500 1500 0 0)" gradientUnits="userSpaceOnUse"><stop offset=".15" stop-color="#f2be75"/><stop offset=".85" stop-color="#e0a039"/></linearGradient><path fill="url(#a)" d="M750 1500C335.2 1500 0 1164.7 0 750 0 335.2 335.2 0 750 0s750 335.2 750 750-335.3 750-750 750"/><path fill="#fff" fill-rule="evenodd" d="M598.6 526.4V787c0 160.7-73.6 233.8-213.9 233.8-115.3 0-177.3-42.1-177.3-111.1 0-63.4 52.3-89.3 54.6-86.1 25.5 32.9 57.9 50.9 97.7 50.9 50.5 0 72.2-23.1 72.2-89.8V526.4c0-53.3 25-80.1 70.4-80.1h24.1c47.2 0 72.2 26.8 72.2 80.1m513 44.9c139.8 0 231.9 88 231.9 224.5 0 136.6-92.1 224.6-234.7 224.6s-233.3-91.7-233.3-225.5 93.9-223.6 235.6-223.6zm90.8 231c0-57.9-38.9-98.6-93.1-98.6s-93.1 39.4-93.1 97.7 38 98.6 93.1 98.6c53.2 0 93.1-39.8 93.1-97.7M827.8 672.7v276.8c0 59.8-30.1 80.6-72.7 80.6H738c-44.9 0-76.4-19-76.4-80.6V672.7c0-60.7 32-80.6 74.5-80.6h17.2c44.9 0 74.5 18.5 74.5 80.6m8.3-213c0 48.2-31.9 78.3-87 78.3s-89.8-30.6-89.8-78.3 33.3-77.8 87-77.8c55.1 0 89.8 29.7 89.8 77.8"/></svg>