<svg xmlns="http://www.w3.org/2000/svg" width="960" height="960" fill="none" viewBox="0 0 960 960" id="j">
  <path fill="#F22727" d="M372.837 708.792C382.053 719.032 398.437 730.552 421.989 743.352C490.286 711.185 494.549 678.859 460.389 603.576C443.493 586.68 428.133 578.232 414.309 578.232C400.485 578.232 384.613 587.448 366.693 605.88C348.773 624.312 339.813 640.44 339.813 654.264C339.813 667.576 348.773 683.704 366.693 702.648L372.837 708.792Z"></path>
  <path fill="#8BD9D1" d="M660.837 704.184C699.749 662.712 719.205 615.096 719.205 561.336V497.444C629.208 563.561 596.928 612.181 609.357 743.311C628.215 733.503 645.375 720.46 660.837 704.184Z"></path>
  <path fill="#F2B90F" fill-rule="evenodd" d="M719.205 497.444V380.782V264.12C679.362 314.475 651.182 321.243 583.269 268.728V555.96C583.269 577.976 576.869 595.64 564.069 608.952C551.269 622.264 534.885 628.92 514.917 628.92C495.461 628.92 477.285 620.472 460.389 603.576C494.549 678.859 490.286 711.185 421.989 743.352C448.101 758.2 478.053 765.624 511.845 765.624C548.254 765.624 580.758 758.186 609.357 743.311C596.928 612.181 629.208 563.561 719.205 497.444Z" clip-rule="evenodd"></path>
  <path fill="#03A60E" d="M690.022 200.376C680.806 196.792 666.214 195 646.246 195C626.278 195 610.406 199.864 598.63 209.592C588.39 218.296 583.269 238.008 583.269 268.728C651.182 321.243 679.362 314.475 719.205 264.12C719.205 244.152 716.389 228.28 710.758 216.504C706.661 208.824 699.75 203.448 690.022 200.376Z"></path>
  <path fill="#F22727" d="M302.279 641.529L307.191 632.534C298.317 624.22 291.953 613.581 288.823 601.824C285.693 590.067 285.923 577.664 289.486 566.025C293.049 554.385 299.802 543.976 308.978 535.98C318.154 527.984 329.386 522.722 341.396 520.791C353.406 518.86 365.713 520.338 376.92 525.057C388.126 529.777 397.782 537.548 404.789 547.487C411.797 557.427 415.877 569.137 416.564 581.287C417.25 593.437 414.518 605.539 408.676 616.218L373.589 680.47C368.419 689.937 359.705 696.965 349.363 700.008C339.021 703.051 327.898 701.859 318.442 696.695C308.985 691.531 301.97 682.818 298.939 672.472C295.908 662.127 297.109 650.996 302.279 641.529Z"></path>
</svg>
