<svg xmlns="http://www.w3.org/2000/svg" shape-rendering="geometricPrecision" text-rendering="geometricPrecision" image-rendering="optimizeQuality" fill-rule="evenodd" clip-rule="evenodd" viewBox="0 0 512 398.22"><path fill-rule="nonzero" d="M352.88 175.89c1.75 1.13 3.57 2.63 5.51 4.32l.12.13c2.44 2.06 5.14 4.38 8.14 6.07 2.45 1.38 6.08 1.5 9.89 1.69 17.39.61 24.31 8.29 25.36 25.1l.07.57c.12 2.44.43 4.76 1.31 7.26.88 2.57 2.38 5.32 4.88 8.71 4.7 6.19 7.52 11.45 8.58 16.27 2.18 9.82-2.47 16.33-9.45 22.23-5.04 4.34-5.32 6.01-5.32 12.9-.07 4-.13 8.14-2.76 13.39l-.06.13c-5.04 9.71-13.54 14.63-24.42 13.9-2.32-.19-4.45-.31-6.07.37l-.19.07c-3.38 1.44-6.45 3.94-9.39 6.26-13.63 10.99-23.18 9.58-35.13-.06-2.94-2.39-6.07-4.89-9.51-6.33-1.63-.69-3.76-.5-6.08-.37-7.32.49-12.36-.88-18.15-5.7a26.664 26.664 0 0 1-6.39-8.33c-2.63-5.26-2.69-9.39-2.75-13.4-.07-2.94-.07-5.76-1.38-8.82l-.06-.07c-.57-1.18-2.2-2.56-4.01-4.13-7.01-5.95-11.66-12.23-9.45-22.16 1.06-4.82 3.94-10.08 8.64-16.28 2.56-3.32 4-6.14 4.88-8.7.87-2.51 1.19-4.89 1.31-7.33l.07-.5c1.03-16.83 7.95-24.43 25.29-25.04 3.82-.13 7.51-.32 9.96-1.69l.06-.07c2.94-1.69 5.63-3.94 8.08-6.07 1.94-1.69 3.75-3.25 5.63-4.38 7.47-4.97 15.29-4.49 22.79.06zM23.85 0h464.3c6.57 0 12.54 2.68 16.86 7A23.811 23.811 0 0 1 512 23.86v296.97c0 6.58-2.68 12.55-6.99 16.86-4.32 4.32-10.29 7-16.86 7h-26.89c-6.49-13.28-13.63-26.37-20.43-39.47l45.19-45.19V72.43l-46.45-46.45H72.43L25.98 72.43v199.82l46.45 46.46h162.73l-13.45 25.98H23.85c-6.57 0-12.54-2.68-16.86-7A23.794 23.794 0 0 1 0 320.83V23.86C0 17.29 2.68 11.31 6.99 7c4.32-4.32 10.29-7 16.86-7zm94.89 120.76-1.16 14.51H80.34l.96-18.38-.96-44.21h19.73L99 114.95l.2 4.45h18.47l1.07 1.36zM88.56 270.18c17.6-23.1 32.62-12.59 53.63 2.09 1.06.74 2.12 1.46 3.17 2.21 3.02 2.08 6.16 1.7 9.33.15 3.42-1.71 6.87-4.76 10.29-7.77l.06-.03c3.08-2.71 6.1-5.38 9.33-7.43.56-.35 1.27-.19 1.61.37l4.79 7.52c.34.56.19 1.28-.37 1.62-2.49 1.59-5.19 3.98-7.96 6.44l-.06.06c-4.79 4.23-9.7 8.55-15.11 10.78-5.6 2.3-11.63 2.3-18.34-2.36l-3.2-2.24c-8.09-5.65-15.02-10.47-21.24-12-5.97-1.43-11.41.28-16.91 7.5-.4.52-1.15.62-1.65.21l-7.12-5.44c-.56-.4-.65-1.15-.25-1.68zm-4.28-81.39c-1.08 0-2.07-.68-2.78-1.76-.72-1.07-1.16-2.59-1.16-4.25 0-1.67.44-3.18 1.16-4.26.71-1.08 1.7-1.76 2.78-1.76h83.15c1.08 0 2.08.68 2.79 1.76s1.16 2.59 1.16 4.26c0 1.66-.45 3.18-1.16 4.25-.71 1.08-1.71 1.76-2.79 1.76H84.28zm0 36.01c-1.08 0-2.07-.67-2.78-1.75-.72-1.08-1.16-2.6-1.16-4.27 0-1.66.44-3.17 1.16-4.25.71-1.08 1.7-1.75 2.78-1.75h114.69c1.08 0 2.07.67 2.79 1.75.71 1.08 1.15 2.59 1.15 4.25 0 1.67-.44 3.19-1.15 4.27-.72 1.08-1.71 1.75-2.79 1.75H84.28zm59.59-109.85.77 20.32H125.2l.96-18.38-.96-44.21h19.73l-1.06 42.27zm41.85-43.33c5.55 0 10.77.87 15.67 2.61l-3.28 15.38-1.26.78c-1.68-.91-3.61-1.63-5.81-2.18-2.19-.55-4.22-.82-6.09-.82-3.93 0-6.77 1.14-8.51 3.43-1.74 2.29-2.62 6.11-2.62 11.46 0 6.26 1 10.82 3 13.69 2 2.87 5.13 4.3 9.39 4.3 1.8 0 3.82-.17 6.04-.53 2.23-.35 4.18-.85 5.86-1.5l1.54.97-1.54 15.28c-3.87 1.23-8.36 1.84-13.45 1.84-10.38 0-18.2-2.71-23.45-8.12-5.26-5.42-7.89-13.32-7.89-23.7 0-10.45 2.82-18.54 8.47-24.28 5.64-5.74 13.61-8.61 23.93-8.61zm68.03 49.02 1.07 1.35-1.16 13.28h-44.11l.97-18.38-.97-44.21h44.89l1.06 1.36-1.26 13.27-25.34-.58-.19 9.66 19.63-.3 1.07 1.35-1.17 14.13-19.92-.29-.1 3.67.19 6.27 25.34-.58zm66.92-5.78.78 20.41h-21.09l-17.61-33.47h-1.16l-.1 10.83.78 22.64h-17.61l.97-18.38-.97-44.21h21.09l17.61 33.47h1.16l-.58-32.79 17.8-1.06-1.07 42.56zm37.02-43.34c6.13 0 12.19 1.13 18.19 3.39l-3.1 15.77-2.71 1.16c-2.7-1.68-5.39-3-8.03-3.97-2.64-.96-4.77-1.45-6.38-1.45-1.48 0-2.68.31-3.53.87-.85.56-1.3 1.36-1.3 2.32 0 1.23.68 2.3 1.98 3.15 1.3.84 3.54 2.05 6.62 3.43 3.58 1.61 6.61 3.13 8.9 4.49 2.3 1.37 4.36 3.3 6.1 5.72 1.74 2.41 2.61 5.39 2.61 8.94 0 3.93-1.11 7.52-3.24 10.69-2.14 3.17-5.27 5.74-9.24 7.59-3.98 1.85-8.64 2.81-13.93 2.81-6.58 0-13.48-1.23-20.7-3.68l2.81-16.83 1.93-1.16c2.97 2.26 6.17 4.07 9.53 5.37 3.37 1.3 6.2 1.98 8.46 1.98 1.81 0 3.13-.33 3.92-.92.78-.59 1.21-1.37 1.21-2.27 0-1.36-.72-2.52-2.08-3.43-1.37-.91-3.65-2.11-6.72-3.44-3.52-1.53-6.48-3.04-8.75-4.4-2.27-1.37-4.28-3.29-5.95-5.71-1.68-2.41-2.52-5.4-2.52-8.94 0-4.06 1.12-7.74 3.29-10.98 2.17-3.23 5.28-5.84 9.19-7.69 3.91-1.85 8.41-2.81 13.44-2.81zm72.23 49.12 1.07 1.35-1.16 13.28h-44.11l.97-18.38-.97-44.21h44.89l1.06 1.36-1.26 13.27-25.34-.58-.19 9.66 19.63-.3 1.06 1.35-1.15 14.13-19.93-.29-.1 3.67.19 6.27 25.34-.58zm-12.05 259.73-18.85-3.38-9.45 16.97c-.06.12-.13.25-.25.31-3.95 4.88-7.58 4.76-10.71 2.19-3.38-2.75-5.64-8.64-7.08-12.52l-.56-1.44L351 344.81c-.62-1.19-.19-2.63 1-3.19.13-.07.25-.13.31-.13 2.07-.69 4.39-2.13 6.89-4 2.63-1.95 5.38-4.39 8.2-6.89.5-.44 1.13-.69 1.82-.63 5.38.13 10.64-.31 15.34-1.88 4.63-1.56 8.89-4.32 12.52-8.95.81-1.07 2.32-1.25 3.32-.44.25.25.5.5.62.81l23.11 44.58 2 4.32c.07.13.13.26.13.37.94 3.33 1.13 6.21 0 8.39-1.26 2.45-3.69 3.7-7.83 3.39-.12-.07-.37-.13-.56-.19zm-133.8-3.38-18.85 3.38c-.18.06-.37.06-.62.06-4.13.31-6.58-.93-7.83-3.37-1.12-2.13-.94-5.02 0-8.39l.13-.38 2-4.32 23.11-44.58c.12-.31.37-.56.62-.81 1.07-.82 2.51-.63 3.32.43 3.57 4.57 7.83 7.33 12.52 8.96 4.76 1.62 9.96 2 15.34 1.87.63-.06 1.25.13 1.82.63 2.81 2.51 5.57 4.95 8.2 6.89 2.5 1.88 4.82 3.32 6.89 4.01l.31.12c1.19.63 1.63 2.07 1 3.2l-19.97 37.68-.57 1.44c-1.44 3.88-3.69 9.77-7.07 12.52-3.13 2.51-6.7 2.7-10.71-2.19-.06-.12-.18-.18-.25-.31l-9.39-16.84zm86.59-158.65c-7.45-7.45-17.72-12.09-29.11-12.09s-21.66 4.64-29.12 12.09c-7.45 7.45-12.08 17.72-12.08 29.11 0 11.4 4.63 21.67 12.08 29.12 7.46 7.44 17.73 12.08 29.12 12.08s21.66-4.64 29.11-12.08c7.45-7.45 12.08-17.72 12.08-29.12-.06-11.33-4.63-21.66-12.08-29.11z"/></svg>