<svg version="1.1" id="Layer_1" xmlns:x="ns_extend;" xmlns:i="ns_ai;" xmlns:graph="ns_graphs;" xmlns="http://www.w3.org/2000/svg" xmlns:xlink="http://www.w3.org/1999/xlink" x="0px" y="0px" viewBox="0 0 157.4 55" style="enable-background:new 0 0 157.4 55;" xml:space="preserve">
 <style type="text/css">
  .st0{fill:#06C755;}
 </style>
 <metadata>
  <sfw xmlns="ns_sfw;">
   <slices>
   </slices>
   <sliceSourceBounds bottomLeftOrigin="true" height="55" width="157.4" x="121.3" y="-227.5">
   </sliceSourceBounds>
   <optimizationSettings>
    <targetSettings fileFormat="JPEGFormat" targetSettingsID="0">
     <JPEGFormat blurAmount="0" embedICCProfile="false" matteColor="#FFFFFF" noMatteColor="false" optimized="true" progressive="false" quality="60">
     </JPEGFormat>
    </targetSettings>
   </optimizationSettings>
  </sfw>
 </metadata>
 <g>
  <path class="st0" d="M155.2,55h-32.5h0c-1.2,0-2.2-1-2.2-2.2v0v0V2.3v0v0c0-1.2,1-2.2,2.2-2.2h0h32.5c1.2,0,2.2,1,2.2,2.2v8.2
		c0,1.2-1,2.2-2.2,2.2h-22.1v8.5h22.1c1.2,0,2.2,1,2.2,2.2v8.2c0,1.2-1,2.2-2.2,2.2h-22.1v8.5h22.1c1.2,0,2.2,1,2.2,2.2v8.2
		C157.4,54,156.4,55,155.2,55z">
  </path>
  <path class="st0" d="M34.8,55c1.2,0,2.2-1,2.2-2.2v-8.2c0-1.2-1-2.2-2.2-2.2H12.6V2.2c0-1.2-1-2.2-2.2-2.2H2.2C1,0,0,1,0,2.2v50.5
		v0v0C0,54,1,55,2.2,55h0H34.8z">
  </path>
  <path class="st0" d="M54.4,0h-8.2c-1.2,0-2.2,1-2.2,2.2v50.6c0,1.2,1,2.2,2.2,2.2h8.2c1.2,0,2.2-1,2.2-2.2V2.2
		C56.6,1,55.6,0,54.4,0z">
  </path>
  <path class="st0" d="M110.3,0h-8.2c-1.2,0-2.2,1-2.2,2.2v30L76.7,1c-0.1-0.1-0.1-0.2-0.2-0.2c0,0,0,0,0,0c0,0-0.1-0.1-0.1-0.1
		c0,0,0,0,0,0c0,0-0.1-0.1-0.1-0.1c0,0,0,0-0.1,0c0,0-0.1-0.1-0.1-0.1c0,0,0,0-0.1,0c0,0-0.1,0-0.1-0.1c0,0,0,0-0.1,0
		c0,0-0.1,0-0.1-0.1c0,0,0,0-0.1,0c0,0-0.1,0-0.1,0c0,0-0.1,0-0.1,0c0,0-0.1,0-0.1,0c0,0-0.1,0-0.1,0c0,0-0.1,0-0.1,0
		c0,0-0.1,0-0.1,0c0,0-0.1,0-0.1,0h-8.2c-1.2,0-2.2,1-2.2,2.2v50.6c0,1.2,1,2.2,2.2,2.2h8.2c1.2,0,2.2-1,2.2-2.2v-30L100.3,54
		c0.2,0.2,0.4,0.4,0.6,0.6c0,0,0,0,0,0c0,0,0.1,0.1,0.1,0.1c0,0,0,0,0.1,0c0,0,0.1,0,0.1,0.1c0,0,0.1,0,0.1,0c0,0,0,0,0.1,0
		c0.1,0,0.1,0,0.2,0c0,0,0,0,0,0c0.2,0,0.4,0.1,0.6,0.1h8.2c1.2,0,2.2-1,2.2-2.2V2.2C112.5,1,111.5,0,110.3,0z">
  </path>
 </g>
</svg>