<svg viewBox="0 0 512 512" xmlns="http://www.w3.org/2000/svg" fill-rule="evenodd" clip-rule="evenodd" stroke-linejoin="round" stroke-miterlimit="2"><path d="M103.17 66.372c72.78-29.995 206.275-64.453 300.464-37.674 48.44 13.771 92.41 65.892 100.84 121.418 6.982 46.012-10.863 98.615-35.527 125.234-1.81 1.952-2.772 4.541-2.59 7.197.063.938.28 1.892.618 2.766 34.073 87.607-19.385 129.919-80.296 141.804-62.374 12.171-123.282 33.055-181.862 57.455h-.005l-.003.003c-60.04 25.055-146.057-.792-175.106-65.15-16.422-36.388-4.82-89.32 8.426-126.796 1.611-4.556.688-9.614-2.251-13.45-10.904-14.233-19.474-31.152-24.808-50.232-20.952-74.966 25.624-135.179 92.1-162.575zm214.193 99.404c-17.246-19.067-47.744-22.127-70.836-.76-4.478 4.144-12.685 3.187-16.98-1.148-13.798-13.926-39.054-16.85-60.273-8.336-17.538 7.038-31.625 23.16-40.112 47.901 0 0-15.38 59.215-28.54 95.25-20.83 61.703 70.195 79.477 88.112 21.645l25.832-90.606c4.078-13.142 10.25-24.441 22.646-21.293 12.397 3.15 13.06 15.885 8.18 29.582l-12.089 49.994c-11.055 39.928 45.097 50.708 56.982 14.112l19.386-72.395c3.86-13.917 10.799-22.08 20.842-19.982 10.046 2.098 13.098 10.709 9.128 24.604l-10.684 42.18c-7.022 24.257-.685 44.42 23.76 48.34 26.651 4.273 43.395-6.925 49.102-11.66 1.499-1.236 2.37-3.015 2.692-4.934.64-3.789-2.293-7.192-6.123-7.3-10.095-.274-16.284-1.82-18.52-8.327-1.71-4.974-2.311-10.351.773-21.175 2.678-9.4 9.483-33.842 14.47-51.792 5.567-20.04 13.31-42.922-5.213-58.764-15.55-13.301-39.755-9.482-58.684 6.131-4.033 3.33-10.34 2.615-13.85-1.267zM348.197 499.938c75.614-1.955 96.11-48.22 78.498-51.673-48.036-9.42-249.115 56.089-78.498 51.673zM88.1 12.683C36.057 16.735 19.974 68.258 32.53 68.258c33.333 0 169.341-64.428 55.572-55.575z" fill="#ff4a79" fill-rule="nonzero"/></svg>