<?xml version="1.0" encoding="utf-8"?>
<!-- Generator: Adobe Illustrator 29.4.0, SVG Export Plug-In . SVG Version: 9.03 Build 0)  -->
<svg version="1.0" id="katman_1" xmlns="http://www.w3.org/2000/svg" xmlns:xlink="http://www.w3.org/1999/xlink" x="0px" y="0px"
	 viewBox="0 0 841.9 595.3" style="enable-background:new 0 0 841.9 595.3;" xml:space="preserve">
<style type="text/css">
	.st0{fill:#265DF5;}
	.st1{fill:url(#SVGID_1_);}
	.st2{fill:#FFFFFF;}
</style>
<path class="st0" d="M366.7,256c-4.8-0.1-9.6,1-14,3c-4.1,1.9-7.7,4.7-10.5,8.3v-10.1h-20.6v81.5h20.6v-45c0-6.5,1.6-11.4,4.9-14.9
	c3.3-3.5,7.8-5.2,13.5-5.2c5.6,0,10,1.7,13.2,5.2c3.2,3.5,4.9,8.5,4.9,14.9v45h20.6v-47.8c0-11-3-19.5-9-25.7
	C384.2,259,376.4,256,366.7,256z"/>
<path class="st0" d="M474.8,268.8c-2.9-3.9-6.6-7-10.9-9.3c-4.6-2.4-9.9-3.7-16-3.7c-6.7-0.1-13.2,1.7-18.9,5.2
	c-5.8,3.6-10.4,8.6-13.4,14.7c-3.3,6.4-4.9,13.7-4.9,21.9c0,8.3,1.6,15.7,4.9,22.1c3,6.1,7.6,11.3,13.4,14.9
	c5.6,3.5,12.1,5.4,18.7,5.3c5.6,0.1,11.1-1.2,16.1-3.7c4.4-2.2,8.1-5.5,10.9-9.5v11.9h20.7v-81.4h-20.7V268.8z M471.9,310.8
	c-1.8,3.4-4.6,6.3-7.9,8.2c-3.3,1.9-7,2.9-10.7,2.9c-3.7,0-7.4-1-10.5-2.9c-3.4-2-6.1-5-7.9-8.5c-2.1-4-3.1-8.4-3-12.9
	c0-4.9,1-9.1,3-12.7c1.4-2.5,3.2-4.6,5.4-6.4c2.2-1.7,4.8-3,7.5-3.8c2.7-0.8,5.6-1,8.4-0.6c2.8,0.4,5.5,1.3,7.9,2.7
	c3.4,1.9,6.1,4.8,7.9,8.2c2,3.6,2.9,7.9,2.9,12.9C474.8,302.8,473.8,307.1,471.9,310.8z"/>
<path class="st0" d="M565.5,302c0,6.5-1.6,11.4-4.9,14.9c-3.2,3.5-7.7,5.2-13.4,5.2c-5.6,0-10-1.7-13.2-5.2
	c-3.2-3.5-4.9-8.5-4.9-14.9v-44.9h-20.6V305c0,7.3,1.4,13.5,4.2,18.7c2.6,5,6.6,9.2,11.5,11.9c5.2,2.8,11,4.2,16.9,4
	c4.8,0,9.5-1,13.9-3c4.1-1.9,7.7-4.7,10.4-8.3v10.3h20.7v-81.4h-20.7V302z"/>
<path class="st0" d="M674,257.2h-26.8l-27.4,34.6v-61.9h-20.6v108.8h20.6V304l27.6,34.7h26.8l-36.2-40.6L674,257.2z"/>
<path class="st0" d="M704.4,269.9v-12.7h-20.6v81.5h20.6v-40.6c0-7.6,1.6-12.8,4.9-15.9c3.3-3,8.2-4.6,14.6-4.6h5.5V256
	c-5-0.1-10,1.1-14.4,3.5C710.6,262,706.9,265.5,704.4,269.9z"/>
<path class="st0" d="M759.6,257.1H739v81.5h20.6V257.1z"/>
<path class="st0" d="M749.3,247.4c6.8,0,12.3-5.5,12.3-12.3c0-6.8-5.5-12.3-12.3-12.3c-6.8,0-12.3,5.5-12.3,12.3
	C737,241.9,742.5,247.4,749.3,247.4z"/>
<path class="st0" d="M175.8,393c52.5,0,95.1-42.6,95.1-95.1c0-52.5-42.6-95.1-95.1-95.1c-52.5,0-95.1,42.6-95.1,95.1
	C80.8,350.4,123.3,393,175.8,393z"/>
<linearGradient id="SVGID_1_" gradientUnits="userSpaceOnUse" x1="194.699" y1="249.0076" x2="138.9347" y2="313.3353" gradientTransform="matrix(1 0 0 -1 3.051759e-05 596.7244)">
	<stop  offset="0" style="stop-color:#FFFFFF"/>
	<stop  offset="1" style="stop-color:#265DF5"/>
</linearGradient>
<path class="st1" d="M204.4,333.1l-0.2,9.6l-0.6,27.8v1.1c-47-40.7-55-50.6-56.4-53.6l0-0.1c-0.2-0.6-0.2-1.2-0.1-1.8
	c0-0.2,0.1-0.4,0.1-0.6c0-0.2,0.1-0.3,0.2-0.5c0.5-1.3,1.2-2.6,2.1-3.7c0.6-0.8,1.4-1.6,2.1-2.4c1.6-1.6,3.4-3.1,5.2-4.4
	c0.9-0.7,1.9-1.4,2.9-2.1c1.9-1.3,4-2.7,6.2-3.9C182.7,314.3,204.2,332.9,204.4,333.1z"/>
<path class="st2" d="M205.1,241.7l-0.2,9.7l-0.1,4.8l-0.2,9.6l-0.1,4.8l-0.2,9.6c-0.3,0.1-21.8,8.5-38.3,18.3
	c-2.2,1.3-4.3,2.6-6.2,3.9c-1,0.7-2,1.4-2.9,2.1c-1.8,1.4-3.6,2.8-5.2,4.4c-0.8,0.7-1.5,1.5-2.1,2.4c-1.5,1.9-2.4,3.8-2.5,5.5l0.2-8
	v-0.1l0-1.2v-0.5l0.1-5.1l0.3-10l0.1-4.9l0.3-10C151.4,263.1,199.4,243.9,205.1,241.7z"/>
<path class="st2" d="M160.8,252.4c7.8,0,14.1-6.3,14.1-14.1c0-7.8-6.3-14.1-14.1-14.1c-7.8,0-14.1,6.3-14.1,14.1
	C146.7,246.1,153,252.4,160.8,252.4z"/>
</svg>
