<svg xmlns="http://www.w3.org/2000/svg" width="1562" height="510"><path fill="#fc2779" fill-rule="evenodd" d="M450.34 25.62c-12.81 24.59-24.61 49.85-36.75 72.09-16.17 30.98-28.31 57.26-43.14 85.22-8.09 15.15-15.51 30.31-22.92 45.81-28.99 60.63-55.28 122.27-80.22 184.59-8.09 20.21-13.49 36.38-22.59 56.25-10.11 22.23-13.48 38.4-45.84 34.36-8.09-1.01-18.2-3.03-22.24-11.12-4.05-8.08-1.69-18.53-1.02-27.28 5.73-64.68 9.44-127.67 14.84-193.01 1.68-17.86 5.39-44.8 5.73-67.37-7.08 15.83-14.16 36.38-17.2 43.45-31.68 72.08-52.24 120.25-81.23 193.01-8.09 20.55-10.78 34.36-24.6 49.18-17.53 18.86-31.69 17.52-38.09 17.52-40.45 1.01-38.43-18.53-28.32-42.78 9.1-22.23 41.8-92.97 52.25-114.53 9.77-20.55 18.2-41.09 27.3-61.98 7.75-17.18 16.85-34.69 24.27-52.21 25.28-59.96 56.96-117.22 85.28-175.83 7.75-15.83 23.59-49.52 46.85-47.16 22.25 2.36 27.3 3.37 30.67 18.86 5.06 24.93-.33 52.89-3.03 77.82-3.71 32-6.07 58.61-8.43 93.64-.33 8.76-1.68 45.81-.67 64.33 12.13-18.19 48.87-100.37 60-119.57l58.99-116.22c4.04-6.73 12.8-30.31 32.35-30.31 0 0 54.61-9.1 37.76 23.24m1110.64 175.5c3.37 37.05-10.11 35.7-26.29 40.08-10.12 1.68-79.21 13.47-143.26 24.25v.68c.34 35.7 2.36 65.34 5.4 87.91 3.7 27.62 6.4 50.87 9.1 78.49 2.36 24.92 9.43 64.33-29.67 67.7-13.48 1.01-17.52 2.36-30.33 2.36-10.79 0-14.16-10.78-15.84-19.2-11.13-52.21-7.08-107.45-10.79-160.67-.34-3.37-.67-27.63-.34-45.14-17.19 2.69-30.33 5.05-37.08 6.06-5.73 1.01-17.86 3.37-34.04 6.4-5.73 18.87-20.22 65.69-24.27 83.88-6.07 28.29-30.67 107.45-31.35 110.48 0 0-2.02 19.54-33.03 17.85-38.09 0-33.37-27.28-26.96-48.5l44.49-150.23c-14.49 2.69-29.33 5.72-44.16 8.75L1112 443.98s-.67 50.86-38.42 55.24c0 0-10.45 3.37-30.68.34-32.36-5.05-7.41-102.07-7.41-102.07 2.36-10.44 13.82-51.2 17.52-69.72-20.56 4.04-39.43 7.75-54.26 10.78-.34.33-.34.33-.68.33-3.71 1.01-8.42 2.03-14.15 2.7-8.43 1.68-14.5 3.03-17.2 3.37-15.16 2.69-38.42 6.73-54.6 9.43 0 0-53.93 100.38-66.4 123.96s-20.56 30.99-39.44 31.32c-38.09 1.01-40.45-7.07-49.21-35.37-12.14-34.02-33.37-108.8-45.51-140.8-2.36-6.73-20.22-66.02-22.92-71.74 0 0-4.38 7.07-4.72 7.41-15.16 28.29-24.94 47.16-38.42 80.17-13.82 34.02-20.9 44.12-42.47 99.03-13.15 33.35-22.59 60.97-80.9 53.56-27.3-3.71-7.41-39.41-.67-54.91 14.15-32 29.32-64.34 44.83-95.33 40.78-81.17 81.57-158.65 131.12-232.42 20.56-30.99 38.42-60.97 64.71-94.99 28.32-38.06 102.47-27.95 74.5 8.09l-85.62 128c33.71-19.88 54.61-34.7 85.28-58.61 24.94-19.54 56.96-42.78 82.24-62.32 11.46-9.09 28.99-22.9 42.47-28.97 13.15-6.06 23.6-10.44 42.48-7.41 0 0 33.37 16.84 21.57 33.01-9.44 12.8-26.63 22.91-26.63 22.91-29.66 22.23-66.07 46.15-96.4 67.7-42.81 30.32-90 52.21-131.8 83.88-14.49 11.11-21.91 13.81-15.84 33.34 6.74 22.24 17.19 43.12 31.35 76.8 9.77 23.58 19.89 49.18 31.68 72.43 17.53-23.25 37.76-52.89 50.9-72.43 45.51-67.36 82.25-117.89 132.47-184.92 27.64-37.05 58.99-73.43 84.94-107.12 15.17-19.53 24.27-26.61 48.2-25.26 0 0 39.1-.67 35.06 33.01-3.71 31.33-8.43 82.53-12.81 113.85-4.72 34.36-10.11 68.72-14.5 103.08l-.33 1.68c18.54-4.04 35.39-7.75 49.21-10.78 3.37-1.01 6.07-1.68 7.41-2.02 2.03-6.06 14.5-36.38 17.19-42.1 34.05-75.46 33.04-75.79 63.04-143.5 11.46-25.94 18.54-47.49 61.68-53.56 37.08-5.39 40.11 23.24 41.46 43.79 2.02 32.68 4.04 61.64 5.06 98.7.33 25.6-.34 17.18 1.34 59.28 40.79-7.75 76.18-14.48 87.64-16.5 30.68-5.73 81.91-24.59 85.62 12.8m-500.55 70.73c9.44-47.49 23.59-130.02 32.36-174.48-15.84 16.84-119.66 160.34-143.26 199.75 23.6-5.39 65.73-14.83 110.56-24.59 0-.34.34-.34.34-.68m255.84-194.69c-12.81 33.01-34.39 98.36-54.95 151.58 16.18-3.03 36.41-7.08 57.98-11.12v-2.36c1.01-24.25-4.05-113.51-3.03-138.1m-625.6-20.55c-22.25 41.1-45.85 77.47-72.47 119.92-55.96 89.6-101.13 170.1-143.6 262.73-4.71 10.45-11.12 23.25-15.84 33.69-8.76 19.87-19.21 29.98-41.12 31.66-12.47.67-41.12 1.01-37.75-19.87 2.36-14.82 11.12-27.29 18.2-39.75 32.36-58.27 55.62-94.32 92.69-157.31 45.84-78.48-43.82-10.44-77.52-53.55-26.29-38.07 34.38-134.4 42.47-154.61 4.38-11.12 23.93-44.13 34.04-61.65 14.16-24.59 71.46-16.84 53.93 17.18-18.2 35.37-20.56 47.5-39.43 83.2-6.41 12.47-14.83 31.67-15.17 46.15-.34 14.15 11.12 20.88 26.96 19.2 23.94-2.69 35.06-22.91 46.86-39.07l72.13-113.52c4.72-9.09 11.8-18.86 21.23-23.92 11.46-5.72 26.3-2.35 37.42 3.04 18.87 9.43 3.71 34.02-3.03 46.48"/></svg>