<?xml version="1.0" encoding="UTF-8"?>
<svg xmlns="http://www.w3.org/2000/svg" version="1.1" viewBox="0 0 1157.2 400.8">
  <defs>
    <style>
      .cls-1 {
        fill: #f26734;
      }

      .cls-2 {
        fill: #ed2588;
      }

      .cls-3 {
        fill: #10b2ac;
      }
    </style>
  </defs>
  
  <g>
    <g id="Capa_1">
      <g>
        <path d="M940.9,200.5c4.3,0,8.5-.1,12.7.1,1,0,2.2,1.2,2.9,2.1,8.7,11.8,17.3,23.6,25.9,35.4.6.8,1.3,1.6,2.4,3v-40.3h13.7v65.2c-4,0-8.2.1-12.4-.1-.9,0-1.8-1.4-2.4-2.3-8.9-12.2-17.7-24.3-26.5-36.5-.6-.8-1.2-1.6-2.5-3.2v41.9h-13.7v-65.3h0Z"/>
        <path d="M498.7,199.5c19.5,0,33.7,14.1,33.8,33.5,0,20-13.9,34.2-33.6,34.3-20,0-34.1-14.1-34.1-34.1,0-19.6,14.2-33.6,33.9-33.7M479,233.3c0,16.8,15.5,27,29.3,19,8.5-4.9,10.6-13,9.8-22.1-1.2-13.8-14.5-22-27.1-16.8-7.4,3-11.9,10.6-11.9,19.9"/>
        <path d="M666.1,233.2c.1-19.7,14.2-33.7,33.9-33.7,20.1,0,34,14.4,33.9,35-.2,18.9-14.8,32.9-34.2,32.8-19.6-.2-33.7-14.5-33.6-34.1M680.4,233.2c0,9.9,4.7,17.6,12.5,20.5,9.8,3.6,20.1-.5,24.4-9.7,5-10.6,1.6-24.2-7.4-29.4-11.8-6.8-29.6-.4-29.5,18.6"/>
        <path d="M783.7,241.5c4.8,8.1,9.4,16.1,14.4,24.6-5.3,0-10,.1-14.7-.1-.9,0-2-1.1-2.5-2-3.2-5.6-6.4-11.3-9.3-17.1-1.5-3-3.2-4.5-6.7-4-1.8.3-3.6,0-5.7,0v23h-13.6v-64.9c.3-.2.5-.4.7-.4,11.1.1,22.3-.3,33.4.5,9.8.7,16.5,7.8,17.7,17,1.4,11-3,18.8-12.9,22.8-.2,0-.3.2-.9.6M759.5,230.3c5.6,0,10.9.2,16.2,0,4.4-.2,7.4-3.5,7.7-7.8.4-4.4-2-8.4-6.1-9-5.8-.8-11.8-.7-17.8-1v17.8h0Z"/>
        <path d="M911.9,200.7h13.6c.2.3.4.3.4.4-.1,15,.4,30.1-.7,45.1-.7,9.8-7.1,16.5-16.7,19.4-7.6,2.3-15.4,2.4-23,.2-10.9-3-17.5-11.3-17.8-23.1-.4-13.4,0-26.9,0-40.3,0-.5.2-1,.3-1.7h13.6v3.7c0,11.6,0,23.2,0,34.8,0,15,13.7,18.3,22.6,14.2,5.8-2.7,7.8-7.9,7.8-13.9,0-11.7,0-23.4,0-35.1v-3.7h0Z"/>
        <path d="M606.7,200.5c6,0,11.8,0,17.6,0,5.6,0,11.3-.1,16.8.5,11.1,1.4,18,10.1,17.5,21.6-.5,11.4-8.2,19.4-19.4,19.9-5.1.2-10.2.1-15.3.1h-3.6v23.2h-13.6v-65.3h0ZM620.6,230.2c5.7,0,11.2.3,16.6,0,4.3-.3,7.3-4,7.4-8.1.1-4.1-2.4-8-6.5-8.5-5.7-.7-11.5-.6-17.5-.9v17.7Z"/>
        <path d="M557.9,242.7v23.2h-13.6v-64.9c.3-.2.5-.4.7-.4,11.2.1,22.6-.3,33.7.5,11.1.8,17.9,10,17.5,21.9-.4,10.8-8.3,19-19.2,19.5-5.1.3-10.2.1-15.3.1-1.2,0-2.3,0-3.8,0M558,213.2v17.1c5.2,0,10.3,0,15.3,0,4.7-.1,8.2-3.3,8.6-7.6.4-5-2.3-8.9-7.3-9.3-5.4-.5-10.8-.1-16.6-.1"/>
        <path d="M1125.6,226.5c4.8-7.9,9.6-15.5,14.2-23.2,1.2-2.1,2.6-3,5.1-2.9,3.9.2,7.8,0,12.3,0-.8,1.3-1.3,2.3-1.9,3.2-7.1,11-14.2,22-21.1,33.1-1,1.6-1.6,3.8-1.7,5.7-.2,7.7,0,15.4,0,23.3h-13.8c0-4.9-.4-9.9,0-14.8.9-8.2-1.6-15-6.4-21.6-6.5-9.1-12.3-18.8-18.8-28.9,5.4,0,10.2-.1,15,.1.8,0,1.8,1.4,2.4,2.3,4.2,6.8,8.4,13.6,12.6,20.5.6,1,1.3,1.9,2.1,3.2"/>
        <polygon points="1089.8 200.8 1089.8 212.7 1071 212.7 1071 265.8 1057.1 265.8 1057.1 212.9 1038.3 212.9 1038.3 200.8 1089.8 200.8"/>
        <polygon points="824.1 212.8 805.1 212.8 805.1 200.8 856.5 200.8 856.5 212.6 837.9 212.6 837.9 265.9 824.1 265.9 824.1 212.8"/>
        <rect x="1013.5" y="200.8" width="13.5" height="65.1"/>
        <path d="M594.1,351.4h-32.2c.6,5.6,2.8,9.8,7.6,12,6.9,3.2,13.2,1.5,19.3-3.4,1,1.3,1.9,2.5,3,4-6.9,6.2-14.7,7.4-23.1,5.1-7.6-2-12.8-8.9-13.6-16.9-1.6-16.8,13.2-28.3,28-21.9,7.4,3.2,11.9,11.7,10.9,21.2M561.9,346.4h26.2c-.9-7.9-5.7-12.6-12.7-12.8-7.2-.2-12.2,4.5-13.5,12.8"/>
        <path d="M709.7,369.1h-6.2c-.1-1.2-.2-2.2-.4-3.8-4,3.1-8.3,4.9-13.2,4.8-8.2-.2-13.9-5.4-13.9-13.1,0-7.8,5.4-12.9,13.8-13.1,4.8,0,9.2,1.2,13.5,4.9-.1-4.6,1.2-8.8-2.2-12-3.7-3.5-8.3-3.5-12.8-2.1-2.7.9-5.1,2.7-7.8,4.2-.6-.9-1.5-2.2-2.6-3.8,5.2-5.6,11.7-7.2,18.9-6.5,9,1,13,5.5,13,14.6,0,8.4,0,16.9,0,25.7M703.3,357c0-5.4-3.9-8.5-10.9-8.5-6,0-10.1,3.5-10,8.6,0,5,4,8.5,9.8,8.5,7.1,0,11.1-3.1,11.1-8.6"/>
        <path d="M803,349.4c0,12.4-8.1,20.7-20,20.7-11.8,0-19.8-8.6-19.8-21,0-12,8.3-20.6,19.9-20.6,11.7,0,19.9,8.6,19.9,20.9M796.4,349.6c.1-8.4-4.7-14.7-11.7-15.4-10-1.1-15.6,7.5-14.9,16.4.6,7.4,4.6,12.4,10.1,13.6,9.1,2,16.3-4.4,16.5-14.5"/>
        <path d="M884.5,348.8c0-3,.3-5.4,0-7.8-.8-4.8-5.5-8-11.1-6.9-4,.7-7.7,2.7-12,4.3-.4-.5-1.2-1.9-2.1-3.1,6.2-6.7,18-8.8,25.5-4.7,3.1,1.7,5.6,4.3,5.7,7.8.3,10.1,0,20.3,0,30.6h-5.6c-.1-1.1-.3-2.2-.5-3.8-4.2,3.4-8.6,5-13.6,4.9-8-.2-13.6-5.6-13.6-13.1,0-7.6,5.4-12.8,13.6-13,5-.2,9.5,1.2,13.7,4.8M884.6,357.1c0-5.5-4.1-8.7-11.1-8.6-5.8,0-9.9,3.6-10,8.5,0,5,4.2,8.6,10.2,8.6,6.8,0,10.9-3.2,10.9-8.5"/>
        <path d="M665.6,369.1h-6.3v-7.2c0-6,0-12.1,0-18.2,0-9.5-6.6-10.6-12.9-9-1.2.3-2.4.9-3.5,1.5-3.1,1.8-4.8,4-4.7,8,.4,8.2.1,16.4.1,24.7h-6v-39.2h5.9c0,1.6.2,3,.3,4.9,5.5-4.8,11.4-7.3,18.4-5.7,4.5,1,7.4,3.6,8.1,8.1.5,3.4.6,6.9.6,10.3,0,7.1,0,14.2,0,21.6"/>
        <path d="M819.6,369h-6.1v-39.2h5.9c.1,1.5.2,2.8.3,3.6,4.1-1.6,8.1-3.9,12.4-4.7,8.2-1.6,14,2.5,14.5,10.6.6,9.8.1,19.6.1,29.6h-6.2v-20.1c0-1.6,0-3.2,0-4.9.4-8.3-4.8-11.3-12.9-9.2-1.6.4-3.1,1.4-4.6,2.2-2.5,1.5-3.7,3.5-3.6,6.7.3,8.3,0,16.6,0,25.4"/>
        <path d="M493.3,369.1h-6.1v-39.2h5.9c.1,1.4.3,2.8.3,3.5,4.1-1.6,8.1-3.8,12.4-4.6,8.7-1.7,14.4,3.2,14.5,12,.1,8.6,0,17.3,0,26,0,.7-.2,1.4-.3,2.3h-5.6c0-1.1-.2-2.2-.2-3.3,0-7.2,0-14.5,0-21.8,0-8-5-11.6-12.7-9.3-1.9.6-3.7,1.7-5.5,2.8-2.1,1.2-2.9,3.1-2.9,5.7.2,8.5,0,17.1,0,26"/>
        <path d="M729.9,334.9v14.3c0,2.9,0,5.9,0,8.8,0,6.5,2.1,7.9,8.2,5.3,2.3,4.8,1.5,6.2-3.7,6.8-7.4.8-10.9-2.4-10.9-9.9,0-8.2,0-16.4,0-25h-6.4v-5.2c2-.1,3.9-.2,6.3-.3v-10.7h6.5v10.7h8.1v5.3h-8Z"/>
        <path d="M549,363.3c.5,1.4,1.1,2.8,1.7,4.4-3.6,2.9-7.6,3.1-11.6,1.8-3.9-1.3-4.8-4.7-4.9-8.3,0-7.4,0-14.7,0-22.1v-3.8c-2.3-.1-4.3-.2-6.5-.3v-5c2-.1,4-.2,6.4-.3v-10.6h6.5v10.7h8v5.2h-7.7c-.1,1.2-.3,2.1-.3,3,0,6.6,0,13.2,0,19.8,0,6.6,2.2,8.1,8.5,5.6"/>
        <rect x="467.5" y="314.8" width="6.2" height="54.2"/>
        <path d="M610.9,369.1h-6.1v-39.2h6c0,1.6.2,3.1.3,5.1,3.8-3.4,7.6-6.3,12.8-6.3v5.1c-3.6,1.5-6.9,2.7-10.1,4.2-2.2,1.1-3,3.1-2.9,5.6.2,8.3,0,16.7,0,25.4"/>
        <rect x="903.8" y="314.7" width="5.6" height="54.3"/>
        <rect x="746.9" y="329.9" width="5.8" height="39.1"/>
        <path d="M754.1,319.9c-.3,2.4-1.5,3.9-4.1,4-2.5,0-4.4-1.8-4.3-4.2,0-2.4,2.1-4.3,4.5-4.1,2.5.2,3.9,1.7,4,4.3"/>
        <path class="cls-3" d="M252.7,172c1,4.7,3.2,9.5,3.7,14.3,3,13.7,4.6,28,4.6,42.7,0,74.9-40.9,139.2-99.4,167.8,11.6,2.3,23.4,3.6,35.6,3.8,108.9,1.6,197.2-86.8,197.2-197.5s-.9-21.8-2.6-32.3l-139.1,1.1Z"/>
        <path class="cls-1" d="M271.8,16C248.8,6.1,223.6.4,197.2,0c-49.7-.7-95.1,17.3-129.8,47.7-16.7,14.6-30.9,32.1-41.9,51.6,24.6-20.5,56.7-32.9,91.9-32.9s64.9,11.5,89.1,30.7c3.1,1.9,6.1,3.9,9,6.1,0,0,.1.1.2.1h0s56.1-87.4,56.1-87.4Z"/>
        <path class="cls-2" d="M256.4,186.3c-1-4.9-2.3-9.6-3.7-14.3h-3.7c0,47.3-37.7,85.1-84.3,84.4-46.5-.7-84.3-39.6-84.3-86.8s37.7-85.1,84.3-84.4c15.2.2,29.4,4.5,41.7,11.9-24.2-19.2-55.3-30.7-89.1-30.7s-67.3,12.4-91.9,33C9.3,128.2,0,161.7,0,197.5s11,75.6,30,106.7c28.9,47.2,76.2,81.6,131.6,92.7,58.5-28.6,99.4-93,99.4-167.8,0-14.7-1.6-29-4.6-42.7"/>
        <path class="cls-3" d="M369.7,94.3c0,30-24.3,54.3-54.4,54.3s-54.3-24.3-54.3-54.3,24.3-54.3,54.3-54.3c30,0,54.4,24.3,54.4,54.4"/>
      </g>
    </g>
  </g>
</svg>