<svg xmlns="http://www.w3.org/2000/svg" viewBox="0 0 437 437" xmlns:xlink="http://www.w3.org/1999/xlink">
 <defs>
  <style>
   .cls-1{isolation:isolate;}.cls-2{fill:#3a3939;opacity:0.47;mix-blend-mode:multiply;}.cls-3{fill:#40c9ff;}.cls-4{fill:#9661ba;}.cls-5{fill:#ffa233;}.cls-6{fill:#ff5a7e;}.cls-7{fill:#ffd91d;}
  </style>
 </defs>
 <title>
  logo for color background_1
 </title>
 <g class="cls-1">
  <g id="Layer_2" data-name="Layer 2">
   <g id="Layer_1-2" data-name="Layer 1">
    <path class="cls-2" d="M437,218.5c0-61.05-88.25-162.11-163.4-201.78C253.68,6.2,234.69,0,218.5,0c-19.56,0-43.23,9.05-67.67,23.84C127,38.24,102.47,58.06,80.28,80.28c-22.42,22.43-42.46,47.26-56.9,71.32S0,199.14,0,218.5C0,295.76,141.24,437,218.5,437c19.52,0,43.13-9,67.54-23.76,23.85-14.41,48.46-34.3,70.68-56.53s42.36-47.12,56.78-71.11C428.08,261.36,437,237.91,437,218.5Z">
    </path>
    <path class="cls-3" d="M290.22,146.78c-22.16-23.13-46.33-46.3-71.4-66.91-21-17.25-42.56-32.72-64.12-44.92-22.45,13.6-45.6,32.29-66.52,53.22L218.5,218.5Z">
    </path>
    <path class="cls-4" d="M270.45,28.24c-18.78-9.92-36.69-15.77-51.95-15.77-18.45,0-40.78,8.54-63.81,22.51,21.56,12.18,43.16,27.65,64.13,44.91Z">
    </path>
    <path class="cls-5" d="M286.4,286.4l-67.9-67.9L88.18,88.18C67,109.32,48.13,132.71,34.52,155.42,78.09,230.86,161,306.3,219.09,353.72Z">
    </path>
    <path class="cls-6" d="M282.18,402.12c-5.27-3.75-30.19-21.56-63.09-48.41C161,306.3,78.09,230.86,34.52,155.42c-13.69,22.78-22,44.83-22,63.08,0,72.84,133.18,206,206,206C236.9,424.53,259.19,416,282.18,402.12Z">
    </path>
    <path class="cls-7" d="M424.53,218.5c0-57.57-83.22-152.86-154.08-190.26L218.82,79.87c25.07,20.63,49.22,43.78,71.39,66.91L218.49,218.5l67.91,67.9-67.31,67.31c32.9,26.84,57.83,44.68,63.09,48.41,22.51-13.59,45.7-32.34,66.65-53.29s39.94-44.43,53.54-67C416.12,258.91,424.53,236.8,424.53,218.5Z">
    </path>
   </g>
  </g>
 </g>
</svg>