<svg version="1.1" id="Layer_1" xmlns:x="ns_extend;" xmlns:i="ns_ai;" xmlns:graph="ns_graphs;" xmlns="http://www.w3.org/2000/svg" xmlns:xlink="http://www.w3.org/1999/xlink" x="0px" y="0px" viewBox="0 0 336.4 86" style="enable-background:new 0 0 336.4 86;" xml:space="preserve">
 <style type="text/css">
  .st0{fill:#EE2C3C;}
 </style>
 <metadata>
  <sfw xmlns="ns_sfw;">
   <slices>
   </slices>
   <sliceSourceBounds bottomLeftOrigin="true" height="86" width="336.4" x="-248.4" y="12">
   </sliceSourceBounds>
  </sfw>
 </metadata>
 <desc>
  Created with Sketch.
 </desc>
 <g id="upgrad-logo">
  <g transform="translate(-5.000000, -27.000000)">
   <g id="Group" transform="translate(7.000000, 41.000000)">
    <path id="Shape" class="st0" d="M46.4,6.5v46.6H30.2v-5.8c-3.3,4.6-8.1,7.2-14.9,7.2C4.3,54.5-2,48.2-2,36.5v-30h16.3v26.6
				c0,6.2,2.5,8.7,7.6,8.7c5.4,0,8.3-3,8.3-9.2V6.5H46.4z">
    </path>
    <path id="Shape_1_" class="st0" d="M106.9,29.8c0,5.4-1,9.8-2.6,13.5c-3.4,7-9.9,11.2-18.9,11.2c-6.3,0-11.2-2.1-14.6-6.4v24
				H54.5V6.5h15.9v5.6c3.5-4.8,8.5-7,15-7c9,0,15.5,4.2,18.9,11.3C106,20.1,106.9,24.4,106.9,29.8z M89.6,29.8
				c0-3.3-0.4-5.6-1.2-7.3C87,19.4,84,17.8,80,17.8c-6.1,0-9.5,3.7-9.5,10.6V31c0,6.9,3.3,10.7,9.5,10.7c4,0,6.9-1.6,8.4-4.7
				C89.2,35.3,89.6,33,89.6,29.8z">
    </path>
    <path id="Shape_2_" class="st0" d="M188.9,6.5h16.2v4.2c2.5-3.9,5.3-5.5,9.2-5.5c5.8,0,9.5,3.6,9.5,9.1c0,5.2-3.8,9.1-9.4,9.1
				c-3.4,0-6.3-1.7-7.6-4.2c-1.4,0.6-1.7,1.3-1.7,4.6v29.4h-16.3L188.9,6.5z">
    </path>
    <path id="Shape_3_" class="st0" d="M275.3,26.3v26.8H259v-5.5c-3.2,4.3-8.2,6.8-16.1,6.8c-7.7,0-13.4-2.6-15.9-7.8
				c-1-1.9-1.4-4-1.4-6.6c0-2.5,0.4-4.6,1.2-6.4c3.5-7.3,13-9,24.8-9h7.3v-0.7c0-2.8-0.2-3.8-0.8-5c-1-2.1-3.2-3.1-6.7-3.1
				c-3.8,0-5.9,0.9-6.9,3c-0.4,0.9-0.5,1.6-0.6,2.8h-16.6c0.1-2.5,0.6-4.7,1.5-6.5c3.2-6.8,11.5-9.9,22.4-9.9
				c11.8,0,18.7,3,21.9,9.7C274.6,17.9,275.3,21.7,275.3,26.3z M258.1,39.1c0.7-1.3,0.9-2.6,0.9-5.1v-0.7h-6.2
				c-4.7,0-8.5,0.5-9.5,2.9c-0.3,0.6-0.5,1.2-0.5,2.1c0,0.8,0.1,1.5,0.5,2.2c1,2.1,3.5,2.8,6.4,2.8C254,43.3,256.9,41.8,258.1,39.1z
				">
    </path>
    <path id="Shape_4_" class="st0" d="M334.4-12.8v66h-15.9v-5.6c-3.5,4.7-8.4,6.9-15,6.9c-9,0-15.5-4.1-18.9-11.2
				c-1.7-3.6-2.6-8-2.6-13.5c0-5.3,1-9.7,2.6-13.4c3.3-7.1,9.9-11.3,18.9-11.3c6.3,0,11.1,2.1,14.6,6.4v-24.4H334.4z M318.3,28.5
				c0-6.9-3.3-10.6-9.5-10.6c-4,0-6.9,1.6-8.4,4.7c-0.8,1.7-1.2,4-1.2,7.3c0,3.4,0.4,5.6,1.2,7.4c1.5,3.1,4.4,4.7,8.4,4.7
				c6.1,0,9.5-3.7,9.5-10.6V28.5z">
    </path>
    <path id="Shape_5_" class="st0" d="M152.1,18v12h10.5l-0.4,1.6c-1.3,5.2-7.8,8.7-13.1,8.7c-7.3,0-16.8-3.4-16.8-19.5
				c0-13.3,6.1-19.7,15.4-19.7c5.1,0,9,1.2,11.4,4.6c1,1.5,1.9,3.5,2,5.3h18.6c0,0,0.4-8.3-6.6-15.5c-0.1-0.1-0.2-0.2-0.3-0.3
				c-5.7-5.9-14.2-9.2-24.7-9.2c-21.5,0-35.4,13.7-35.4,35c0,24.6,17.6,33.3,32.7,33.3c8.5,0,16.1-2.4,20.7-7.2l0.2,6.1h14.6v-0.5
				V42.3V18H152.1z">
    </path>
   </g>
  </g>
 </g>
</svg>