<svg xmlns="http://www.w3.org/2000/svg" width="960" height="960" fill="none" viewBox="0 0 960 960" id="w">
  <g clip-path="url(#clip0_117_1140)">
    <mask id="a" width="846" height="538" x="56" y="218" maskUnits="userSpaceOnUse" style="mask-type:alpha">
      <path fill="#000" d="M58.375 249.75C57.125 246.75 56.5 243.375 56.5 239.625C56.5 235.625 58.625 231.125 62.875 226.125C67.375 220.875 74 218.25 82.75 218.25H164.875C174.625 218.25 183.625 221.625 191.875 228.375C200.125 235.125 206 243.625 209.5 253.875L308.5 550.875L400 253.875C407.25 230.125 422.125 218.25 444.625 218.25H513.625C536.125 218.25 551 230.125 558.25 253.875L649.75 550.875L748.75 253.875C752.25 243.625 758.125 235.125 766.375 228.375C774.625 221.625 783.625 218.25 793.375 218.25H875.5C884 218.25 890.375 220.875 894.625 226.125C899.125 231.125 901.375 235.625 901.375 239.625C901.375 243.375 900.875 246.75 899.875 249.75L732.625 717.75C723.375 743.25 705.375 756 678.625 756H624.25C596.5 756 578.625 743.25 570.625 717.75L479.125 429L387.625 717.75C379.375 743.25 361.5 756 334 756H279.25C252.75 756 234.875 743.25 225.625 717.75L58.375 249.75Z"></path>
    </mask>
    <g mask="url(#a)">
      <rect width="120" height="960" x="-195.743" y="449.594" fill="#00BBF9" transform="rotate(-45 -195.743 449.594)"></rect>
      <rect width="120" height="960" x="143.668" y="110.184" fill="#00BBF9" transform="rotate(-45 143.668 110.184)"></rect>
      <rect width="120" height="960" x="-110.89" y="364.742" fill="#FF006E" transform="rotate(-45 -110.89 364.742)"></rect>
      <rect width="120" height="960" x="228.521" y="25.332" fill="#FF006E" transform="rotate(-45 228.521 25.332)"></rect>
      <rect width="120" height="960" x="-26.037" y="279.891" fill="#FFBE0B" transform="rotate(-45 -26.037 279.891)"></rect>
      <rect width="120" height="960" x="313.374" y="-59.523" fill="#FFBE0B" transform="rotate(-45 313.374 -59.523)"></rect>
      <rect width="120" height="960" x="58.815" y="195.035" fill="#9B5DE5" transform="rotate(-45 58.815 195.035)"></rect>
      <rect width="120" height="960" x="398.227" y="-144.375" fill="#9B5DE5" transform="rotate(-45 398.227 -144.375)"></rect>
    </g>
  </g>
  <defs>
    <clipPath id="clip0_117_1140">
      <rect width="960" height="960" fill="#fff"></rect>
    </clipPath>
  </defs>
</svg>
