<?xml version="1.0" encoding="iso-8859-1"?>
<!-- Uploaded to: SVG Repo, www.svgrepo.com, Generator: SVG Repo Mixer Tools -->
<svg height="800px" width="800px" version="1.1" id="Layer_1" xmlns="http://www.w3.org/2000/svg" xmlns:xlink="http://www.w3.org/1999/xlink" 
	 viewBox="0 0 512.001 512.001" xml:space="preserve">
<path style="fill:#86C180;" d="M435.565,385.895c-2.707-0.965-5.717-0.449-7.95,1.349c-12.771,10.29-29.346,15.508-49.268,15.508
	c-12.013,0-25.067-1.895-38.799-5.636c-29.962-10.079-78.568-41.605-79.185-42.007c-25.334-15.83-49.094-24.401-70.709-25.517
	c0.05-0.223,0.106-0.42,0.172-0.591c0.461-1.242,222.59-256.406,223.244-261.924c1.61-14.026,3.224-28.053,4.864-42.066
	c0.715-6.179-1.421-10.044-3.338-12.198c-2.722-3.056-6.656-4.669-11.379-4.669c-1.113,0-2.098,0.091-2.857,0.195
	c-0.418,0.02-0.837,0.071-1.254,0.157c-45.7,9.288-89.36,13.062-129.7,11.215c-23.666-1.09-48.584-3.297-70.52-11.977
	c-0.856-0.396-5.081-2.532-9.514-4.97c-0.064-0.035-0.126-0.069-0.192-0.104c-8.069-4.166-16.491-3.368-22.596,1.893
	c-0.382,0.329-0.732,0.694-1.05,1.087c-0.654,0.818-1.326,1.624-1.995,2.435c-1.239,1.49-2.519,3.033-3.824,4.777
	c-9.975,13.668-23.502,34.582-25.845,58.273c-0.699,6.744-0.925,16.149,1.868,23.048c0.031,0.084,0.061,0.165,0.094,0.246
	c0.175,0.446,0.705,1.66,1.79,3.297c0.035,0.051,0.069,0.104,0.104,0.155c0.122,0.197,0.309,0.479,0.555,0.796
	c6.049,8.229,22.875,21.831,67.929,21.831c14.114,0,30.075-1.353,47.647-4.035c-59.508,70.197-118.999,140.411-178.462,210.633
	c-0.134,0.137-0.266,0.281-0.391,0.429c-5.053,5.956-5.988,14.226-6.123,15.824c-0.023,0.235-0.031,0.467-0.031,0.704v40.533
	c0,0.464-0.025,3.198-0.05,6.209l-0.003,0.393c-0.005,0.529,0.041,1.06,0.139,1.581c2.288,12.299,9.854,14.646,13.001,15.085
	c0.377,0.051,0.76,0.079,1.14,0.079h15.216c38.69,0,68.594,1.297,101.231,18.093c14.086,7.238,26.765,16.82,40.185,26.963
	c10.989,8.307,22.353,16.896,34.564,24.074c24.991,14.717,54.258,30.73,85.348,34.412c2.965,0.35,5.923,0.527,8.8,0.527
	c0.003,0,0.003,0,0.003,0c20.32,0,38.161-8.764,51.588-25.342c19.112-23.595,27.694-62.536,20.865-94.697
	C440.281,389.156,438.269,386.856,435.565,385.895z"/>
</svg>